25       0       0       1
ICEM - POLYFLOW INTERFACE - Version 15.0.3 - "LengthUnitForPfl=_meter_"
26       0       0       1     432     484
12-Mar-25   09:42:07     2.4
 1       1       0       2
-0.500000000E+01-0.612323400E-15-0.100000000E+02
 
 1       2       0       2
-0.490392637E+01-0.975451589E+00-0.100000000E+02
 
 1       3       0       2
-0.461939764E+01-0.191341722E+01-0.100000000E+02
 
 1       4       0       2
-0.415734816E+01-0.277785110E+01-0.100000000E+02
 
 1       5       0       2
-0.353553391E+01-0.353553391E+01-0.100000000E+02
 
 1       6       0       2
-0.277785110E+01-0.415734816E+01-0.100000000E+02
 
 1       7       0       2
-0.191341722E+01-0.461939764E+01-0.100000000E+02
 
 1       8       0       2
-0.975451589E+00-0.490392637E+01-0.100000000E+02
 
 1       9       0       2
 0.252660780E-14-0.500000000E+01-0.100000000E+02
 
 1      10       0       2
 0.975451589E+00-0.490392637E+01-0.100000000E+02
 
 1      11       0       2
 0.191341722E+01-0.461939764E+01-0.100000000E+02
 
 1      12       0       2
 0.277785110E+01-0.415734816E+01-0.100000000E+02
 
 1      13       0       2
 0.353553391E+01-0.353553391E+01-0.100000000E+02
 
 1      14       0       2
 0.415734816E+01-0.277785110E+01-0.100000000E+02
 
 1      15       0       2
 0.461939764E+01-0.191341722E+01-0.100000000E+02
 
 1      16       0       2
 0.490392637E+01-0.975451589E+00-0.100000000E+02
 
 1      17       0       2
 0.500000000E+01 0.000000000E+00-0.100000000E+02
 
 1      18       0       2
 0.490392637E+01 0.975451589E+00-0.100000000E+02
 
 1      19       0       2
 0.461939764E+01 0.191341722E+01-0.100000000E+02
 
 1      20       0       2
 0.415734816E+01 0.277785110E+01-0.100000000E+02
 
 1      21       0       2
 0.353553391E+01 0.353553391E+01-0.100000000E+02
 
 1      22       0       2
 0.277785110E+01 0.415734816E+01-0.100000000E+02
 
 1      23       0       2
 0.191341722E+01 0.461939764E+01-0.100000000E+02
 
 1      24       0       2
 0.975451589E+00 0.490392637E+01-0.100000000E+02
 
 1      25       0       2
-0.857562244E-14 0.500000000E+01-0.100000000E+02
 
 1      26       0       2
-0.975451589E+00 0.490392637E+01-0.100000000E+02
 
 1      27       0       2
-0.191341722E+01 0.461939764E+01-0.100000000E+02
 
 1      28       0       2
-0.277785110E+01 0.415734816E+01-0.100000000E+02
 
 1      29       0       2
-0.353553391E+01 0.353553391E+01-0.100000000E+02
 
 1      30       0       2
-0.415734816E+01 0.277785110E+01-0.100000000E+02
 
 1      31       0       2
-0.461939764E+01 0.191341722E+01-0.100000000E+02
 
 1      32       0       2
-0.490392637E+01 0.975451589E+00-0.100000000E+02
 
 1      33       0       2
-0.500000000E+01-0.939609583E-14 0.000000000E+00
 
 1      34       0       2
-0.490392637E+01-0.975451589E+00 0.000000000E+00
 
 1      35       0       2
-0.461939764E+01-0.191341722E+01 0.000000000E+00
 
 1      36       0       2
-0.415734816E+01-0.277785110E+01 0.000000000E+00
 
 1      37       0       2
-0.353553391E+01-0.353553391E+01 0.000000000E+00
 
 1      38       0       2
-0.277785110E+01-0.415734816E+01 0.000000000E+00
 
 1      39       0       2
-0.191341722E+01-0.461939764E+01 0.000000000E+00
 
 1      40       0       2
-0.975451589E+00-0.490392637E+01 0.000000000E+00
 
 1      41       0       2
 0.379721609E-14-0.500000000E+01 0.000000000E+00
 
 1      42       0       2
 0.975451589E+00-0.490392637E+01 0.000000000E+00
 
 1      43       0       2
 0.191341722E+01-0.461939764E+01 0.000000000E+00
 
 1      44       0       2
 0.277785110E+01-0.415734816E+01 0.000000000E+00
 
 1      45       0       2
 0.353553391E+01-0.353553391E+01 0.000000000E+00
 
 1      46       0       2
 0.415734816E+01-0.277785110E+01 0.000000000E+00
 
 1      47       0       2
 0.461939764E+01-0.191341722E+01 0.000000000E+00
 
 1      48       0       2
 0.490392637E+01-0.975451589E+00 0.000000000E+00
 
 1      49       0       2
 0.500000000E+01 0.204402243E-14 0.000000000E+00
 
 1      50       0       2
 0.490392637E+01 0.975451589E+00 0.000000000E+00
 
 1      51       0       2
 0.461939764E+01 0.191341722E+01 0.000000000E+00
 
 1      52       0       2
 0.415734816E+01 0.277785110E+01 0.000000000E+00
 
 1      53       0       2
 0.353553391E+01 0.353553391E+01 0.000000000E+00
 
 1      54       0       2
 0.277785110E+01 0.415734816E+01 0.000000000E+00
 
 1      55       0       2
 0.191341722E+01 0.461939764E+01 0.000000000E+00
 
 1      56       0       2
 0.975451589E+00 0.490392637E+01 0.000000000E+00
 
 1      57       0       2
-0.846513462E-14 0.500000000E+01 0.000000000E+00
 
 1      58       0       2
-0.975451589E+00 0.490392637E+01 0.000000000E+00
 
 1      59       0       2
-0.191341722E+01 0.461939764E+01 0.000000000E+00
 
 1      60       0       2
-0.277785110E+01 0.415734816E+01 0.000000000E+00
 
 1      61       0       2
-0.353553391E+01 0.353553391E+01 0.000000000E+00
 
 1      62       0       2
-0.415734816E+01 0.277785110E+01 0.000000000E+00
 
 1      63       0       2
-0.461939764E+01 0.191341722E+01 0.000000000E+00
 
 1      64       0       2
-0.490392637E+01 0.975451589E+00 0.000000000E+00
 
 1      65       0       2
 0.277665949E+01 0.415814400E+01-0.801120377E+01
 
 1      66       0       2
 0.191206384E+01 0.461995792E+01-0.801145554E+01
 
 1      67       0       2
 0.353448868E+01 0.353657889E+01-0.801096344E+01
 
 1      68       0       2
 0.973906338E+00 0.490423346E+01-0.801115131E+01
 
 1      69       0       2
 0.415645695E+01 0.277918458E+01-0.801037407E+01
 
 1      70       0       2
-0.170767575E-02 0.499999952E+01-0.801079178E+01
 
 1      71       0       2
 0.461873436E+01 0.191501760E+01-0.801000786E+01
 
 1      72       0       2
-0.977273703E+00 0.490356350E+01-0.801052380E+01
 
 1      73       0       2
 0.490356302E+01 0.977277696E+00-0.800987816E+01
 
 1      74       0       2
-0.191528833E+01 0.461862230E+01-0.801040077E+01
 
 1      75       0       2
 0.499999952E+01 0.198298483E-02-0.800982094E+01
 
 1      76       0       2
-0.277964020E+01 0.415615225E+01-0.801045990E+01
 
 1      77       0       2
 0.490432835E+01-0.973429799E+00-0.800993919E+01
 
 1      78       0       2
-0.353707409E+01 0.353399324E+01-0.801106358E+01
 
 1      79       0       2
 0.462019920E+01-0.191148067E+01-0.801029491E+01
 
 1      80       0       2
-0.415862846E+01 0.277593422E+01-0.801111698E+01
 
 1      81       0       2
 0.415852308E+01-0.277609205E+01-0.801082230E+01
 
 1      82       0       2
-0.462028837E+01 0.191126585E+01-0.801194286E+01
 
 1      83       0       2
 0.353702998E+01-0.353403711E+01-0.801144600E+01
 
 1      84       0       2
-0.490437365E+01 0.973199844E+00-0.801259804E+01
 
 1      85       0       2
 0.277959228E+01-0.415618420E+01-0.801204967E+01
 
 1      86       0       2
-0.499999952E+01-0.243594171E-02-0.801307487E+01
 
 1      87       0       2
 0.191531265E+01-0.461861229E+01-0.801258087E+01
 
 1      88       0       2
-0.490345430E+01-0.977822065E+00-0.801375961E+01
 
 1      89       0       2
 0.977398455E+00-0.490353870E+01-0.801301956E+01
 
 1      90       0       2
-0.461854696E+01-0.191546941E+01-0.801361942E+01
 
 1      91       0       2
 0.191140408E-02-0.499999952E+01-0.801332760E+01
 
 1      92       0       2
-0.415615129E+01-0.277964139E+01-0.801397705E+01
 
 1      93       0       2
-0.191168833E+01-0.462011337E+01-0.801378155E+01
 
 1      94       0       2
-0.973641634E+00-0.490428591E+01-0.801356506E+01
 
 1      95       0       2
-0.353411365E+01-0.353695369E+01-0.801395607E+01
 
 1      96       0       2
-0.277628040E+01-0.415839720E+01-0.801381493E+01
 
 1      97       0       2
-0.277587056E+01-0.415867090E+01-0.701889229E+01
 
 1      98       0       2
-0.353372264E+01-0.353734422E+01-0.701890898E+01
 
 1      99       0       2
-0.191148543E+01-0.462019730E+01-0.701776457E+01
 
 1     100       0       2
-0.415580273E+01-0.278016210E+01-0.701879025E+01
 
 1     101       0       2
-0.973270833E+00-0.490435982E+01-0.701905394E+01
 
 1     102       0       2
-0.461822081E+01-0.191625595E+01-0.701959991E+01
 
 1     103       0       2
 0.233362196E-02-0.499999952E+01-0.701897192E+01
 
 1     104       0       2
-0.490328503E+01-0.978671312E+00-0.701946831E+01
 
 1     105       0       2
 0.977836311E+00-0.490345144E+01-0.701876068E+01
 
 1     106       0       2
-0.499999905E+01-0.339475111E-02-0.701884127E+01
 
 1     107       0       2
 0.191561401E+01-0.461848688E+01-0.701811457E+01
 
 1     108       0       2
-0.490458393E+01 0.972140253E+00-0.701814270E+01
 
 1     109       0       2
 0.278007317E+01-0.415586233E+01-0.701796865E+01
 
 1     110       0       2
-0.462057352E+01 0.191057563E+01-0.701736832E+01
 
 1     111       0       2
 0.353748894E+01-0.353357792E+01-0.701742077E+01
 
 1     112       0       2
-0.415907431E+01 0.277526617E+01-0.701675653E+01
 
 1     113       0       2
 0.415890980E+01-0.277551222E+01-0.701673222E+01
 
 1     114       0       2
-0.353767133E+01 0.353339529E+01-0.701654816E+01
 
 1     115       0       2
 0.462048054E+01-0.191080117E+01-0.701603413E+01
 
 1     116       0       2
-0.278025603E+01 0.415574026E+01-0.701638651E+01
 
 1     117       0       2
 0.490447330E+01-0.972697973E+00-0.701533747E+01
 
 1     118       0       2
-0.191592407E+01 0.461835861E+01-0.701650572E+01
 
 1     119       0       2
 0.499999905E+01 0.273853098E-02-0.701496029E+01
 
 1     120       0       2
-0.977913260E+00 0.490343618E+01-0.701666689E+01
 
 1     121       0       2
 0.490342045E+01 0.977990627E+00-0.701473427E+01
 
 1     122       0       2
-0.232349406E-02 0.499999952E+01-0.701686478E+01
 
 1     123       0       2
 0.461846542E+01 0.191566646E+01-0.701487303E+01
 
 1     124       0       2
 0.973292828E+00 0.490435553E+01-0.701723528E+01
 
 1     125       0       2
 0.415606737E+01 0.277976656E+01-0.701522923E+01
 
 1     126       0       2
 0.353403807E+01 0.353702903E+01-0.701573801E+01
 
 1     127       0       2
 0.277611947E+01 0.415850449E+01-0.701656818E+01
 
 1     128       0       2
 0.191146970E+01 0.462020397E+01-0.701714325E+01
 
 1     129       0       2
 0.277561259E+01 0.415884304E+01-0.602061987E+01
 
 1     130       0       2
 0.191097558E+01 0.462040806E+01-0.602025700E+01
 
 1     131       0       2
 0.353361177E+01 0.353745508E+01-0.601995516E+01
 
 1     132       0       2
 0.972797692E+00 0.490445375E+01-0.602142954E+01
 
 1     133       0       2
 0.415583038E+01 0.278012109E+01-0.601887369E+01
 
 1     134       0       2
-0.275823753E-02 0.499999905E+01-0.602132654E+01
 
 1     135       0       2
 0.461829233E+01 0.191608298E+01-0.601880980E+01
 
 1     136       0       2
-0.978201807E+00 0.490337849E+01-0.602024508E+01
 
 1     137       0       2
 0.490333891E+01 0.978401303E+00-0.601874161E+01
 
 1     138       0       2
-0.191622007E+01 0.461823559E+01-0.602088547E+01
 
 1     139       0       2
 0.499999905E+01 0.309922406E-02-0.601940107E+01
 
 1     140       0       2
-0.278038311E+01 0.415565491E+01-0.601995707E+01
 
 1     141       0       2
 0.490452719E+01-0.972427189E+00-0.602002144E+01
 
 1     142       0       2
-0.353787279E+01 0.353319335E+01-0.602078056E+01
 
 1     143       0       2
 0.462059021E+01-0.191053545E+01-0.602109909E+01
 
 1     144       0       2
-0.415919876E+01 0.277507949E+01-0.602065372E+01
 
 1     145       0       2
 0.415906143E+01-0.277528524E+01-0.602179432E+01
 
 1     146       0       2
-0.462079477E+01 0.191004026E+01-0.602168894E+01
 
 1     147       0       2
 0.353766465E+01-0.353340197E+01-0.602229738E+01
 
 1     148       0       2
-0.490465117E+01 0.971801996E+00-0.602203608E+01
 
 1     149       0       2
 0.278018832E+01-0.415578556E+01-0.602251530E+01
 
 1     150       0       2
-0.499999905E+01-0.332228350E-02-0.602160072E+01
 
 1     151       0       2
 0.191582847E+01-0.461839819E+01-0.602316666E+01
 
 1     152       0       2
-0.490325689E+01-0.978811145E+00-0.602328491E+01
 
 1     153       0       2
 0.977746069E+00-0.490346956E+01-0.602258062E+01
 
 1     154       0       2
-0.461818218E+01-0.191634929E+01-0.602331877E+01
 
 1     155       0       2
 0.221336354E-02-0.499999952E+01-0.602219820E+01
 
 1     156       0       2
-0.415577221E+01-0.278020835E+01-0.602260256E+01
 
 1     157       0       2
-0.191154289E+01-0.462017345E+01-0.602109623E+01
 
 1     158       0       2
-0.973379433E+00-0.490433836E+01-0.602247000E+01
 
 1     159       0       2
-0.277612734E+01-0.415849924E+01-0.602087069E+01
 
 1     160       0       2
-0.277648878E+01-0.415825796E+01-0.502201700E+01
 
 1     161       0       2
-0.353416252E+01-0.353690481E+01-0.502174139E+01
 
 1     162       0       2
-0.191183770E+01-0.462005138E+01-0.502242279E+01
 
 1     163       0       2
-0.415602016E+01-0.277983737E+01-0.502328491E+01
 
 1     164       0       2
-0.461832428E+01-0.191600621E+01-0.502416992E+01
 
 1     165       0       2
 0.187001424E-02-0.499999952E+01-0.502430725E+01
 
 1     166       0       2
-0.490330791E+01-0.978555739E+00-0.502453518E+01
 
 1     167       0       2
 0.977552295E+00-0.490350819E+01-0.502522135E+01
 
 1     168       0       2
-0.499999905E+01-0.329639995E-02-0.502407455E+01
 
 1     169       0       2
 0.191570616E+01-0.461844873E+01-0.502554655E+01
 
 1     170       0       2
-0.490456438E+01 0.972239435E+00-0.502322817E+01
 
 1     171       0       2
 0.278013921E+01-0.415581846E+01-0.502573490E+01
 
 1     172       0       2
-0.462070322E+01 0.191026270E+01-0.502353382E+01
 
 1     173       0       2
 0.353750777E+01-0.353355908E+01-0.502424526E+01
 
 1     174       0       2
-0.415920115E+01 0.277507591E+01-0.502334356E+01
 
 1     175       0       2
 0.415891790E+01-0.277550030E+01-0.502301121E+01
 
 1     176       0       2
-0.353775883E+01 0.353330755E+01-0.502247381E+01
 
 1     177       0       2
 0.462052536E+01-0.191069233E+01-0.502369261E+01
 
 1     178       0       2
-0.278039527E+01 0.415564680E+01-0.502283144E+01
 
 1     179       0       2
 0.490447092E+01-0.972709358E+00-0.502200365E+01
 
 1     180       0       2
-0.191611207E+01 0.461828041E+01-0.502236176E+01
 
 1     181       0       2
 0.499999905E+01 0.293044979E-02-0.502140522E+01
 
 1     182       0       2
-0.978313029E+00 0.490335655E+01-0.502312851E+01
 
 1     183       0       2
 0.490332890E+01 0.978449762E+00-0.502140427E+01
 
 1     184       0       2
-0.276327017E-02 0.499999905E+01-0.502269888E+01
 
 1     185       0       2
 0.461826563E+01 0.191614819E+01-0.502063370E+01
 
 1     186       0       2
 0.972642720E+00 0.490448427E+01-0.502267694E+01
 
 1     187       0       2
 0.415568352E+01 0.278034043E+01-0.502150011E+01
 
 1     188       0       2
 0.353345656E+01 0.353761005E+01-0.502169085E+01
 
 1     189       0       2
 0.277535629E+01 0.415901375E+01-0.502336550E+01
 
 1     190       0       2
 0.191070676E+01 0.462051964E+01-0.502316046E+01
 
 1     191       0       2
 0.277535510E+01 0.415901470E+01-0.402315474E+01
 
 1     192       0       2
 0.191085887E+01 0.462045670E+01-0.402186489E+01
 
 1     193       0       2
 0.353341269E+01 0.353765392E+01-0.402236891E+01
 
 1     194       0       2
 0.972715676E+00 0.490446997E+01-0.402288103E+01
 
 1     195       0       2
 0.415577316E+01 0.278020668E+01-0.402083445E+01
 
 1     196       0       2
-0.269788317E-02 0.499999905E+01-0.402269125E+01
 
 1     197       0       2
 0.461830664E+01 0.191604900E+01-0.402126026E+01
 
 1     198       0       2
-0.978011787E+00 0.490341663E+01-0.402127171E+01
 
 1     199       0       2
 0.490338373E+01 0.978176236E+00-0.402125597E+01
 
 1     200       0       2
-0.191585076E+01 0.461838865E+01-0.402227020E+01
 
 1     201       0       2
 0.499999905E+01 0.274464930E-02-0.402298403E+01
 
 1     202       0       2
-0.278003526E+01 0.415588808E+01-0.402136755E+01
 
 1     203       0       2
 0.490442848E+01-0.972924590E+00-0.402368689E+01
 
 1     204       0       2
-0.353751612E+01 0.353355074E+01-0.402260542E+01
 
 1     205       0       2
 0.462035179E+01-0.191111255E+01-0.402354717E+01
 
 1     206       0       2
-0.415892363E+01 0.277549171E+01-0.402254057E+01
 
 1     207       0       2
 0.415871811E+01-0.277579951E+01-0.402443695E+01
 
 1     208       0       2
-0.462043905E+01 0.191090131E+01-0.402154160E+01
 
 1     209       0       2
 0.353725743E+01-0.353380942E+01-0.402507019E+01
 
 1     210       0       2
-0.490446186E+01 0.972756445E+00-0.402287674E+01
 
 1     211       0       2
 0.277976084E+01-0.415607166E+01-0.402521324E+01
 
 1     212       0       2
-0.499999952E+01-0.265202741E-02-0.402319574E+01
 
 1     213       0       2
 0.191544402E+01-0.461855745E+01-0.402718639E+01
 
 1     214       0       2
-0.490345860E+01-0.977800250E+00-0.402283144E+01
 
 1     215       0       2
 0.977322876E+00-0.490355396E+01-0.402703667E+01
 
 1     216       0       2
-0.461862946E+01-0.191527057E+01-0.402205610E+01
 
 1     217       0       2
 0.145170861E-02-0.500000000E+01-0.402416134E+01
 
 1     218       0       2
-0.415645313E+01-0.277919006E+01-0.402031898E+01
 
 1     219       0       2
-0.191214275E+01-0.461992550E+01-0.402313805E+01
 
 1     220       0       2
-0.974095702E+00-0.490419579E+01-0.402285385E+01
 
 1     221       0       2
-0.353450775E+01-0.353655958E+01-0.401992083E+01
 
 1     222       0       2
-0.277675104E+01-0.415808296E+01-0.402045774E+01
 
 1     223       0       2
-0.277708268E+01-0.415786123E+01-0.301890683E+01
 
 1     224       0       2
-0.353485727E+01-0.353621030E+01-0.301689434E+01
 
 1     225       0       2
-0.191245627E+01-0.461979532E+01-0.301883888E+01
 
 1     226       0       2
-0.415678978E+01-0.277868629E+01-0.301765084E+01
 
 1     227       0       2
-0.974353254E+00-0.490414476E+01-0.302011466E+01
 
 1     228       0       2
 0.133875688E-02-0.500000000E+01-0.302315235E+01
 
 1     229       0       2
 0.976971924E+00-0.490362358E+01-0.302464914E+01
 
 1     230       0       2
-0.499999952E+01-0.181002065E-02-0.301965642E+01
 
 1     231       0       2
 0.191493642E+01-0.461876822E+01-0.302461219E+01
 
 1     232       0       2
-0.490431547E+01 0.973492444E+00-0.301955271E+01
 
 1     233       0       2
 0.277930880E+01-0.415637350E+01-0.302345872E+01
 
 1     234       0       2
-0.462018633E+01 0.191151190E+01-0.301911449E+01
 
 1     235       0       2
-0.415847540E+01 0.277616334E+01-0.301839542E+01
 
 1     236       0       2
 0.415836477E+01-0.277632904E+01-0.302067351E+01
 
 1     237       0       2
-0.353704453E+01 0.353402257E+01-0.301928544E+01
 
 1     238       0       2
 0.462014580E+01-0.191161048E+01-0.302169442E+01
 
 1     239       0       2
-0.277961421E+01 0.415616941E+01-0.301922917E+01
 
 1     240       0       2
 0.490432549E+01-0.973443806E+00-0.301880097E+01
 
 1     241       0       2
-0.191534030E+01 0.461860085E+01-0.301825047E+01
 
 1     242       0       2
 0.499999952E+01 0.211676536E-02-0.302000475E+01
 
 1     243       0       2
-0.977540731E+00 0.490351057E+01-0.301902056E+01
 
 1     244       0       2
 0.490349531E+01 0.977615535E+00-0.301947045E+01
 
 1     245       0       2
-0.213159597E-02 0.499999952E+01-0.301829290E+01
 
 1     246       0       2
 0.461852884E+01 0.191551375E+01-0.301809335E+01
 
 1     247       0       2
 0.415596056E+01 0.277992654E+01-0.301905751E+01
 
 1     248       0       2
 0.353372788E+01 0.353733897E+01-0.301938939E+01
 
 1     249       0       2
 0.277588034E+01 0.415866423E+01-0.301903534E+01
 
 1     250       0       2
 0.191118062E+01 0.462032318E+01-0.301991296E+01
 
 1     251       0       2
 0.277633262E+01 0.415836239E+01-0.201448536E+01
 
 1     252       0       2
 0.191176307E+01 0.462008238E+01-0.201456022E+01
 
 1     253       0       2
 0.353432298E+01 0.353674436E+01-0.201342368E+01
 
 1     254       0       2
 0.973950386E+00 0.490422487E+01-0.201372695E+01
 
 1     255       0       2
 0.415638494E+01 0.277929211E+01-0.201388431E+01
 
 1     256       0       2
-0.145437696E-02 0.500000000E+01-0.201384234E+01
 
 1     257       0       2
 0.461878204E+01 0.191490293E+01-0.201398325E+01
 
 1     258       0       2
-0.976858854E+00 0.490364647E+01-0.201282454E+01
 
 1     259       0       2
 0.490364218E+01 0.976880014E+00-0.201426196E+01
 
 1     260       0       2
-0.191473615E+01 0.461885118E+01-0.201372886E+01
 
 1     261       0       2
 0.500000000E+01 0.144625490E-02-0.201409960E+01
 
 1     262       0       2
-0.277902913E+01 0.415656042E+01-0.201380897E+01
 
 1     263       0       2
 0.490418720E+01-0.974140167E+00-0.201501131E+01
 
 1     264       0       2
-0.353650427E+01 0.353456330E+01-0.201299930E+01
 
 1     265       0       2
 0.461985207E+01-0.191231966E+01-0.201384449E+01
 
 1     266       0       2
-0.415809631E+01 0.277673078E+01-0.201360583E+01
 
 1     267       0       2
 0.415798950E+01-0.277689075E+01-0.201600528E+01
 
 1     268       0       2
-0.461990499E+01 0.191219163E+01-0.201381111E+01
 
 1     269       0       2
 0.353627801E+01-0.353478956E+01-0.201621795E+01
 
 1     270       0       2
-0.490416336E+01 0.974260330E+00-0.201385903E+01
 
 1     271       0       2
 0.277874374E+01-0.415675163E+01-0.201767802E+01
 
 1     272       0       2
-0.500000000E+01-0.103840150E-02-0.201380706E+01
 
 1     273       0       2
 0.191438246E+01-0.461899757E+01-0.201613259E+01
 
 1     274       0       2
-0.490376520E+01-0.976261616E+00-0.201321220E+01
 
 1     275       0       2
 0.976475418E+00-0.490372276E+01-0.201819086E+01
 
 1     276       0       2
-0.461917782E+01-0.191394806E+01-0.201333332E+01
 
 1     277       0       2
 0.990592293E-03-0.500000000E+01-0.201758051E+01
 
 1     278       0       2
-0.415708160E+01-0.277824950E+01-0.201310778E+01
 
 1     279       0       2
-0.974609256E+00-0.490409374E+01-0.201603341E+01
 
 1     280       0       2
-0.353516006E+01-0.353590775E+01-0.201316071E+01
 
 1     281       0       2
-0.277730632E+01-0.415771198E+01-0.201291537E+01
 
 1     282       0       2
-0.277755237E+01-0.415754747E+01-0.100736809E+01
 
 1     283       0       2
-0.191302788E+01-0.461955881E+01-0.100832844E+01
 
 1     284       0       2
-0.975001812E+00-0.490401602E+01-0.100869429E+01
 
 1     285       0       2
 0.518538349E-03-0.500000000E+01-0.100921869E+01
 
 1     286       0       2
 0.975907326E+00-0.490383577E+01-0.100801754E+01
 
 1     287       0       2
 0.191385651E+01-0.461921549E+01-0.100879264E+01
 
 1     288       0       2
 0.277830338E+01-0.415704584E+01-0.100774181E+01
 
 1     289       0       2
 0.353589272E+01-0.353517509E+01-0.100854087E+01
 
 1     290       0       2
 0.415761328E+01-0.277745438E+01-0.100706887E+01
 
 1     291       0       2
 0.461960506E+01-0.191291678E+01-0.100765443E+01
 
 1     292       0       2
 0.490405989E+01-0.974780023E+00-0.100670147E+01
 
 1     293       0       2
 0.500000000E+01 0.691304158E-03-0.100735080E+01
 
 1     294       0       2
 0.490378237E+01 0.976174593E+00-0.100676858E+01
 
 1     295       0       2
 0.461909151E+01 0.191415620E+01-0.100720537E+01
 
 1     296       0       2
 0.415687704E+01 0.277855611E+01-0.100690973E+01
 
 1     297       0       2
 0.353488207E+01 0.353618550E+01-0.100715470E+01
 
 1     298       0       2
 0.277706766E+01 0.415787125E+01-0.100742221E+01
 
 1     299       0       2
 0.191265297E+01 0.461971426E+01-0.100705671E+01
 
 1     300       0       2
 0.974681199E+00 0.490407944E+01-0.100720394E+01
 
 1     301       0       2
-0.695202732E-03 0.500000000E+01-0.100648296E+01
 
 1     302       0       2
-0.976145148E+00 0.490378857E+01-0.100688338E+01
 
 1     303       0       2
-0.191407990E+01 0.461912298E+01-0.100705814E+01
 
 1     304       0       2
-0.277841425E+01 0.415697193E+01-0.100667477E+01
 
 1     305       0       2
-0.353600454E+01 0.353506303E+01-0.100687587E+01
 
 1     306       0       2
-0.415771818E+01 0.277729750E+01-0.100701952E+01
 
 1     307       0       2
-0.461963940E+01 0.191283298E+01-0.100706351E+01
 
 1     308       0       2
-0.490403605E+01 0.974900723E+00-0.100676429E+01
 
 1     309       0       2
-0.500000000E+01-0.472272193E-03-0.100668895E+01
 
 1     310       0       2
-0.490385675E+01-0.975802660E+00-0.100680745E+01
 
 1     311       0       2
-0.461927795E+01-0.191370583E+01-0.100647426E+01
 
 1     312       0       2
-0.415721130E+01-0.277805567E+01-0.100681233E+01
 
 1     313       0       2
-0.353533888E+01-0.353572893E+01-0.100684249E+01
 
 1     314       0       2
-0.500000000E+01-0.118295604E-02-0.900655842E+01
 
 1     315       0       2
-0.490414572E+01 0.974347830E+00-0.900640583E+01
 
 1     316       0       2
-0.461982679E+01 0.191238105E+01-0.900598526E+01
 
 1     317       0       2
-0.415796757E+01 0.277692389E+01-0.900559425E+01
 
 1     318       0       2
-0.353630471E+01 0.353476286E+01-0.900535679E+01
 
 1     319       0       2
-0.277871060E+01 0.415677357E+01-0.900539875E+01
 
 1     320       0       2
-0.191435361E+01 0.461900949E+01-0.900505638E+01
 
 1     321       0       2
-0.976394832E+00 0.490373850E+01-0.900509453E+01
 
 1     322       0       2
-0.900591491E-03 0.500000000E+01-0.900524044E+01
 
 1     323       0       2
 0.974631608E+00 0.490408945E+01-0.900544453E+01
 
 1     324       0       2
 0.191270721E+01 0.461969185E+01-0.900561905E+01
 
 1     325       0       2
 0.277723289E+01 0.415776110E+01-0.900563145E+01
 
 1     326       0       2
 0.353500652E+01 0.353606129E+01-0.900550270E+01
 
 1     327       0       2
 0.415691185E+01 0.277850366E+01-0.900522137E+01
 
 1     328       0       2
 0.461907434E+01 0.191419780E+01-0.900508213E+01
 
 1     329       0       2
 0.490374851E+01 0.976344824E+00-0.900507832E+01
 
 1     330       0       2
 0.500000000E+01 0.983980601E-03-0.900491714E+01
 
 1     331       0       2
 0.490412998E+01-0.974427342E+00-0.900489616E+01
 
 1     332       0       2
 0.461981297E+01-0.191241479E+01-0.900505638E+01
 
 1     333       0       2
 0.415796375E+01-0.277692986E+01-0.900531673E+01
 
 1     334       0       2
 0.353632259E+01-0.353474498E+01-0.900562572E+01
 
 1     335       0       2
 0.277877331E+01-0.415673161E+01-0.900593567E+01
 
 1     336       0       2
 0.191442513E+01-0.461897993E+01-0.900621986E+01
 
 1     337       0       2
 0.976493418E+00-0.490371895E+01-0.900646400E+01
 
 1     338       0       2
 0.102854986E-02-0.500000000E+01-0.900665665E+01
 
 1     339       0       2
-0.974466145E+00-0.490412235E+01-0.900681114E+01
 
 1     340       0       2
-0.191249645E+01-0.461977911E+01-0.900692654E+01
 
 1     341       0       2
-0.277700710E+01-0.415791178E+01-0.900699329E+01
 
 1     342       0       2
-0.353478336E+01-0.353628445E+01-0.900707817E+01
 
 1     343       0       2
-0.415673351E+01-0.277877069E+01-0.900708389E+01
 
 1     344       0       2
-0.461895752E+01-0.191447902E+01-0.900696564E+01
 
 1     345       0       2
-0.490369749E+01-0.976602256E+00-0.900684834E+01
 
 1     346       0       2
 0.973203182E+00 0.490437317E+01-0.301892447E+01
 
 1     347       0       2
 0.353680944E+01-0.353425813E+01-0.302145624E+01
 
 1     348       0       2
-0.973691940E+00-0.490427589E+01-0.502326965E+01
 
 1     349       0       2
-0.191275203E+01-0.461967325E+01-0.201421428E+01
 
 1     350       0       2
-0.461892176E+01-0.191456604E+01-0.301733255E+01
 
 1     351       0       2
-0.490362597E+01-0.976961732E+00-0.301842093E+01
 
 1     352       0       2
-0.353381252E+01-0.353725433E+01-0.602106714E+01
 
 1     353       0       2
 0.158800676E+00 0.565714091E-01-0.100000000E+02
 
 1     354       0       2
-0.105333698E+01 0.120255899E+01-0.100000000E+02
 
 1     355       0       2
-0.292990953E+00 0.826535463E+00-0.100000000E+02
 
 1     356       0       2
 0.524842441E+00 0.799992502E+00-0.100000000E+02
 
 1     357       0       2
 0.773563623E+00-0.468491048E+00-0.100000000E+02
 
 1     358       0       2
 0.122266603E+01 0.362486303E+00-0.100000000E+02
 
 1     359       0       2
 0.183998001E+01-0.113686576E+00-0.100000000E+02
 
 1     360       0       2
-0.749399066E+00 0.206093359E+01-0.100000000E+02
 
 1     361       0       2
-0.145539141E+01 0.221438384E+01-0.100000000E+02
 
 1     362       0       2
 0.891629159E-01 0.190057194E+01-0.100000000E+02
 
 1     363       0       2
 0.899229407E+00-0.177692795E+01-0.100000000E+02
 
 1     364       0       2
 0.147702742E+01-0.102371728E+01-0.100000000E+02
 
 1     365       0       2
-0.212734699E+01-0.519275606E+00-0.100000000E+02
 
 1     366       0       2
 0.812541008E+00 0.172305214E+01-0.100000000E+02
 
 1     367       0       2
 0.149915731E+01 0.132403588E+01-0.100000000E+02
 
 1     368       0       2
-0.138600218E+01 0.296114874E+01-0.100000000E+02
 
 1     369       0       2
-0.646594763E+00 0.298925066E+01-0.100000000E+02
 
 1     370       0       2
 0.104306459E+01 0.282021523E+01-0.100000000E+02
 
 1     371       0       2
 0.139665619E+00 0.291108084E+01-0.100000000E+02
 
 1     372       0       2
 0.354757428E+01 0.969393432E+00-0.100000000E+02
 
 1     373       0       2
 0.343263674E+01 0.180809826E+00-0.100000000E+02
 
 1     374       0       2
 0.327807808E+01-0.682791173E+00-0.100000000E+02
 
 1     375       0       2
 0.316340137E+01-0.153851914E+01-0.100000000E+02
 
 1     376       0       2
 0.944729686E+00-0.304305148E+01-0.100000000E+02
 
 1     377       0       2
 0.160520828E+01-0.242841673E+01-0.100000000E+02
 
 1     378       0       2
 0.348424852E+00-0.356535912E+01-0.100000000E+02
 
 1     379       0       2
-0.323649347E+00-0.314877605E+01-0.100000000E+02
 
 1     380       0       2
-0.253981733E+01-0.150129712E+01-0.100000000E+02
 
 1     381       0       2
-0.201693821E+01 0.258898330E+01-0.100000000E+02
 
 1     382       0       2
-0.274163604E+01 0.103058505E+01-0.100000000E+02
 
 1     383       0       2
-0.300413370E+01 0.690261945E-01-0.100000000E+02
 
 1     384       0       2
-0.328769922E+01-0.910227835E+00-0.100000000E+02
 
 1     385       0       2
-0.239620328E+01 0.329047489E+01-0.100000000E+02
 
 1     386       0       2
-0.163143981E+01 0.372878265E+01-0.100000000E+02
 
 1     387       0       2
 0.640946180E-01 0.393857503E+01-0.100000000E+02
 
 1     388       0       2
-0.792571783E+00 0.391649294E+01-0.100000000E+02
 
 1     389       0       2
 0.869693637E+00 0.390106797E+01-0.100000000E+02
 
 1     390       0       2
 0.159089541E+01 0.366763473E+01-0.100000000E+02
 
 1     391       0       2
 0.226912785E+01 0.322374868E+01-0.100000000E+02
 
 1     392       0       2
 0.291714644E+01 0.272486615E+01-0.100000000E+02
 
 1     393       0       2
 0.347792649E+01 0.215265036E+01-0.100000000E+02
 
 1     394       0       2
 0.397027087E+01 0.154928553E+01-0.100000000E+02
 
 1     395       0       2
 0.421676826E+01 0.832133770E+00-0.100000000E+02
 
 1     396       0       2
 0.420082140E+01 0.342355110E-01-0.100000000E+02
 
 1     397       0       2
 0.391180491E+01-0.158844793E+01-0.100000000E+02
 
 1     398       0       2
 0.408652925E+01-0.801327646E+00-0.100000000E+02
 
 1     399       0       2
 0.351391125E+01-0.222504568E+01-0.100000000E+02
 
 1     400       0       2
 0.287143707E+01-0.268545175E+01-0.100000000E+02
 
 1     401       0       2
 0.219917560E+01-0.325463343E+01-0.100000000E+02
 
 1     402       0       2
 0.148994052E+01-0.376780009E+01-0.100000000E+02
 
 1     403       0       2
 0.784635544E+00-0.414783382E+01-0.100000000E+02
 
 1     404       0       2
 0.391832255E-01-0.421881533E+01-0.100000000E+02
 
 1     405       0       2
-0.719715476E+00-0.397423840E+01-0.100000000E+02
 
 1     406       0       2
-0.151373839E+01-0.359384060E+01-0.100000000E+02
 
 1     407       0       2
-0.227287126E+01-0.310163236E+01-0.100000000E+02
 
 1     408       0       2
-0.298910332E+01-0.252012753E+01-0.100000000E+02
 
 1     409       0       2
-0.364528275E+01-0.187852848E+01-0.100000000E+02
 
 1     410       0       2
-0.304190874E+01 0.261475849E+01-0.100000000E+02
 
 1     411       0       2
-0.363887143E+01 0.174462271E+01-0.100000000E+02
 
 1     412       0       2
-0.389332604E+01 0.623966157E+00-0.100000000E+02
 
 1     413       0       2
-0.408960819E+01-0.362759531E+00-0.100000000E+02
 
 1     414       0       2
-0.251887012E+01 0.187312961E+01-0.100000000E+02
 
 1     415       0       2
-0.177074552E+01 0.488641888E+00-0.100000000E+02
 
 1     416       0       2
-0.424771023E+01-0.125948870E+01-0.100000000E+02
 
 1     417       0       2
 0.180441701E+01 0.229953170E+01-0.100000000E+02
 
 1     418       0       2
 0.254785001E+00-0.244631195E+01-0.100000000E+02
 
 1     419       0       2
-0.174906027E+01 0.148591256E+01-0.100000000E+02
 
 1     420       0       2
 0.252025604E+01-0.522132516E+00-0.100000000E+02
 
 1     421       0       2
 0.231814671E+01-0.166093767E+01-0.100000000E+02
 
 1     422       0       2
-0.960727870E+00-0.333773009E-01-0.100000000E+02
 
 1     423       0       2
-0.178519297E+01-0.209203744E+01-0.100000000E+02
 
 1     424       0       2
-0.109033394E+01-0.266227031E+01-0.100000000E+02
 
 1     425       0       2
-0.121209586E+01-0.113821077E+01-0.100000000E+02
 
 1     426       0       2
-0.477946639E+00-0.186525726E+01-0.100000000E+02
 
 1     427       0       2
-0.393433571E+00-0.588022232E+00-0.100000000E+02
 
 1     428       0       2
 0.193683729E+00-0.118998313E+01-0.100000000E+02
 
 1     429       0       2
 0.211182714E+01 0.889820814E+00-0.100000000E+02
 
 1     430       0       2
 0.273499942E+01 0.464362532E+00-0.100000000E+02
 
 1     431       0       2
 0.244470119E+01 0.183213043E+01-0.100000000E+02
 
 1     432       0       2
 0.296809363E+01 0.138041067E+01-0.100000000E+02
 
 2       1       3       2       0
       3       0       1
     399     375     397
 2       2       3       2       0
       3       0       1
     416       3       2
 2       3       3       2       0
       3       0       1
     411      31      30
 2       4       3       2       0
       3       0       1
     354     415     419
 2       5       3       2       0
       3       0       1
     422     427     425
 2       6       3       2       0
       3       0       1
     361     381     368
 2       7       3       2       0
       3       0       1
     370     389     390
 2       8       3       2       0
       3       0       1
     372     394     395
 2       9       3       2       0
       3       0       1
     355     356     353
 2      10       3       2       0
       3       0       1
     378     403     404
 2      11       4       2       0
       4       0       1
     414     410     385     381
 2      12       4       2       0
       4       0       1
     418     379     424     426
 2      13       4       2       0
       4       0       1
     373     374     420     430
 2      14       4       2       0
       4       0       1
     380     365     425     423
 2      15       4       2       0
       4       0       1
     354     355     422     415
 2      16       4       2       0
       4       0       1
     431     392     393     432
 2      17       4       2       0
       4       0       1
     372     373     430     432
 2      18       4       2       0
       4       0       1
     394     372     432     393
 2      19       4       2       0
       4       0       1
     361     360     354     419
 2      20       4       2       0
       4       0       1
     407     423     424     406
 2      21       4       2       0
       4       0       1
     359     429     430     420
 2      22       4       2       0
       4       0       1
     353     356     358     357
 2      23       4       2       0
       4       0       1
     354     360     362     355
 2      24       4       2       0
       4       0       1
     355     362     366     356
 2      25       4       2       0
       4       0       1
     356     366     367     358
 2      26       4       2       0
       4       0       1
     358     359     364     357
 2      27       4       2       0
       4       0       1
     377     376     418     363
 2      28       4       2       0
       4       0       1
     421     420     374     375
 2      29       4       2       0
       4       0       1
     427     353     357     428
 2      30       4       2       0
       4       0       1
     361     419     414     381
 2      31       4       2       0
       4       0       1
     360     369     371     362
 2      32       4       2       0
       4       0       1
     361     368     369     360
 2      33       4       2       0
       4       0       1
     362     371     370     366
 2      34       4       2       0
       4       0       1
     364     363     428     357
 2      35       4       2       0
       4       0       1
     415     365     383     382
 2      36       4       2       0
       4       0       1
     408     380     423     407
 2      37       4       2       0
       4       0       1
     420     421     364     359
 2      38       4       2       0
       4       0       1
     363     418     426     428
 2      39       4       2       0
       4       0       1
     417     391     392     431
 2      40       4       2       0
       4       0       1
     382     383     412     411
 2      41       4       2       0
       4       0       1
     425     427     428     426
 2      42       4       2       0
       4       0       1
     422     355     353     427
 2      43       4       2       0
       4       0       1
     401     377     421     400
 2      44       4       2       0
       4       0       1
     363     364     421     377
 2      45       4       2       0
       4       0       1
     389     370     371     387
 2      46       4       2       0
       4       0       1
     368     386     388     369
 2      47       4       2       0
       4       0       1
     381     385     386     368
 2      48       4       2       0
       4       0       1
     369     388     387     371
 2      49       4       2       0
       4       0       1
     370     390     391     417
 2      50       4       2       0
       4       0       1
     384     409     416     413
 2      51       4       2       0
       4       0       1
     358     367     429     359
 2      52       4       2       0
       4       0       1
     367     366     370     417
 2      53       4       2       0
       4       0       1
     379     378     404     405
 2      54       4       2       0
       4       0       1
     373     396     398     374
 2      55       4       2       0
       4       0       1
     372     395     396     373
 2      56       4       2       0
       4       0       1
     374     398     397     375
 2      57       4       2       0
       4       0       1
     403     378     376     402
 2      58       4       2       0
       4       0       1
     377     401     402     376
 2      59       4       2       0
       4       0       1
     375     399     400     421
 2      60       4       2       0
       4       0       1
     409     408       5       4
 2      61       4       2       0
       4       0       1
     430     429     431     432
 2      62       4       2       0
       4       0       1
       3     416     409       4
 2      63       4       2       0
       4       0       1
     380     408     409     384
 2      64       4       2       0
       4       0       1
     414     382     411     410
 2      65       4       2       0
       4       0       1
     429     367     417     431
 2      66       4       2       0
       4       0       1
     376     378     379     418
 2      67       4       2       0
       4       0       1
     387      25      24     389
 2      68       4       2       0
       4       0       1
     397      15      14     399
 2      69       4       2       0
       4       0       1
     410      29      28     385
 2      70       4       2       0
       4       0       1
     385      28      27     386
 2      71       4       2       0
       4       0       1
     386      27      26     388
 2      72       4       2       0
       4       0       1
     388      26      25     387
 2      73       4       2       0
       4       0       1
     389      24      23     390
 2      74       4       2       0
       4       0       1
     390      23      22     391
 2      75       4       2       0
       4       0       1
     391      22      21     392
 2      76       4       2       0
       4       0       1
     392      21      20     393
 2      77       4       2       0
       4       0       1
     393      20      19     394
 2      78       4       2       0
       4       0       1
     394      19      18     395
 2      79       4       2       0
       4       0       1
     395      18      17     396
 2      80       4       2       0
       4       0       1
     396      17      16     398
 2      81       4       2       0
       4       0       1
     398      16      15     397
 2      82       4       2       0
       4       0       1
     399      14      13     400
 2      83       4       2       0
       4       0       1
     400      13      12     401
 2      84       4       2       0
       4       0       1
     401      12      11     402
 2      85       4       2       0
       4       0       1
     402      11      10     403
 2      86       4       2       0
       4       0       1
     403      10       9     404
 2      87       4       2       0
       4       0       1
     404       9       8     405
 2      88       4       2       0
       4       0       1
     405       8       7     406
 2      89       4       2       0
       4       0       1
     406       7       6     407
 2      90       4       2       0
       4       0       1
     407       6       5     408
 2      91       4       2       0
       4       0       1
     423     425     426     424
 2      92       4       2       0
       4       0       1
     379     405     406     424
 2      93       4       2       0
       4       0       1
     383     384     413     412
 2      94       4       2       0
       4       0       1
     422     425     365     415
 2      95       4       2       0
       4       0       1
     412      32      31     411
 2      96       4       2       0
       4       0       1
     413       1      32     412
 2      97       4       2       0
       4       0       1
     416       2       1     413
 2      98       4       2       0
       4       0       1
     411      30      29     410
 2      99       4       2       0
       4       0       1
     365     380     384     383
 2     100       4       2       0
       4       0       1
     419     415     382     414
 2     101       4       2       0
       4       0       1
      65      67     326     325
 2     102       4       2       0
       4       0       1
      67      69     327     326
 2     103       4       2       0
       4       0       1
      69      71     328     327
 2     104       4       2       0
       4       0       1
      71      73     329     328
 2     105       4       2       0
       4       0       1
      73      75     330     329
 2     106       4       2       0
       4       0       1
      75      77     331     330
 2     107       4       2       0
       4       0       1
      77      79     332     331
 2     108       4       2       0
       4       0       1
      79      81     333     332
 2     109       4       2       0
       4       0       1
      81      83     334     333
 2     110       4       2       0
       4       0       1
      83      85     335     334
 2     111       4       2       0
       4       0       1
      85      87     336     335
 2     112       4       2       0
       4       0       1
      87      89     337     336
 2     113       4       2       0
       4       0       1
      89      91     338     337
 2     114       4       2       0
       4       0       1
      91      94     339     338
 2     115       4       2       0
       4       0       1
      94      93     340     339
 2     116       4       2       0
       4       0       1
      93      96     341     340
 2     117       4       2       0
       4       0       1
      96      95     342     341
 2     118       4       2       0
       4       0       1
      95      92     343     342
 2     119       4       2       0
       4       0       1
      92      90     344     343
 2     120       4       2       0
       4       0       1
      90      88     345     344
 2     121       4       2       0
       4       0       1
      88      86     314     345
 2     122       4       2       0
       4       0       1
      86      84     315     314
 2     123       4       2       0
       4       0       1
      84      82     316     315
 2     124       4       2       0
       4       0       1
      82      80     317     316
 2     125       4       2       0
       4       0       1
      80      78     318     317
 2     126       4       2       0
       4       0       1
      78      76     319     318
 2     127       4       2       0
       4       0       1
      76      74     320     319
 2     128       4       2       0
       4       0       1
      74      72     321     320
 2     129       4       2       0
       4       0       1
      72      70     322     321
 2     130       4       2       0
       4       0       1
      70      68     323     322
 2     131       4       2       0
       4       0       1
      68      66     324     323
 2     132       4       2       0
       4       0       1
     324      66      65     325
 2     133       4       2       0
       4       0       1
      66     128     127      65
 2     134       4       2       0
       4       0       1
      65     127     126      67
 2     135       4       2       0
       4       0       1
      68     124     128      66
 2     136       4       2       0
       4       0       1
      67     126     125      69
 2     137       4       2       0
       4       0       1
      70     122     124      68
 2     138       4       2       0
       4       0       1
      69     125     123      71
 2     139       4       2       0
       4       0       1
      72     120     122      70
 2     140       4       2       0
       4       0       1
      71     123     121      73
 2     141       4       2       0
       4       0       1
      74     118     120      72
 2     142       4       2       0
       4       0       1
      73     121     119      75
 2     143       4       2       0
       4       0       1
      76     116     118      74
 2     144       4       2       0
       4       0       1
      75     119     117      77
 2     145       4       2       0
       4       0       1
      78     114     116      76
 2     146       4       2       0
       4       0       1
      77     117     115      79
 2     147       4       2       0
       4       0       1
      80     112     114      78
 2     148       4       2       0
       4       0       1
      79     115     113      81
 2     149       4       2       0
       4       0       1
      82     110     112      80
 2     150       4       2       0
       4       0       1
      81     113     111      83
 2     151       4       2       0
       4       0       1
      84     108     110      82
 2     152       4       2       0
       4       0       1
      83     111     109      85
 2     153       4       2       0
       4       0       1
      86     106     108      84
 2     154       4       2       0
       4       0       1
      85     109     107      87
 2     155       4       2       0
       4       0       1
      88     104     106      86
 2     156       4       2       0
       4       0       1
      87     107     105      89
 2     157       4       2       0
       4       0       1
      90     102     104      88
 2     158       4       2       0
       4       0       1
      89     105     103      91
 2     159       4       2       0
       4       0       1
      92     100     102      90
 2     160       4       2       0
       4       0       1
      91     103     101      94
 2     161       4       2       0
       4       0       1
      95      98     100      92
 2     162       4       2       0
       4       0       1
      93      99      97      96
 2     163       4       2       0
       4       0       1
      94     101      99      93
 2     164       4       2       0
       4       0       1
      96      97      98      95
 2     165       4       2       0
       4       0       1
      97     159     352      98
 2     166       4       2       0
       4       0       1
      99     157     159      97
 2     167       4       2       0
       4       0       1
      98     352     156     100
 2     168       4       2       0
       4       0       1
     101     158     157      99
 2     169       4       2       0
       4       0       1
     100     156     154     102
 2     170       4       2       0
       4       0       1
     103     155     158     101
 2     171       4       2       0
       4       0       1
     102     154     152     104
 2     172       4       2       0
       4       0       1
     105     153     155     103
 2     173       4       2       0
       4       0       1
     104     152     150     106
 2     174       4       2       0
       4       0       1
     107     151     153     105
 2     175       4       2       0
       4       0       1
     106     150     148     108
 2     176       4       2       0
       4       0       1
     109     149     151     107
 2     177       4       2       0
       4       0       1
     108     148     146     110
 2     178       4       2       0
       4       0       1
     111     147     149     109
 2     179       4       2       0
       4       0       1
     110     146     144     112
 2     180       4       2       0
       4       0       1
     113     145     147     111
 2     181       4       2       0
       4       0       1
     112     144     142     114
 2     182       4       2       0
       4       0       1
     115     143     145     113
 2     183       4       2       0
       4       0       1
     114     142     140     116
 2     184       4       2       0
       4       0       1
     117     141     143     115
 2     185       4       2       0
       4       0       1
     116     140     138     118
 2     186       4       2       0
       4       0       1
     119     139     141     117
 2     187       4       2       0
       4       0       1
     118     138     136     120
 2     188       4       2       0
       4       0       1
     121     137     139     119
 2     189       4       2       0
       4       0       1
     120     136     134     122
 2     190       4       2       0
       4       0       1
     123     135     137     121
 2     191       4       2       0
       4       0       1
     122     134     132     124
 2     192       4       2       0
       4       0       1
     125     133     135     123
 2     193       4       2       0
       4       0       1
     124     132     130     128
 2     194       4       2       0
       4       0       1
     127     129     131     126
 2     195       4       2       0
       4       0       1
     126     131     133     125
 2     196       4       2       0
       4       0       1
     128     130     129     127
 2     197       4       2       0
       4       0       1
     130     190     189     129
 2     198       4       2       0
       4       0       1
     129     189     188     131
 2     199       4       2       0
       4       0       1
     132     186     190     130
 2     200       4       2       0
       4       0       1
     131     188     187     133
 2     201       4       2       0
       4       0       1
     134     184     186     132
 2     202       4       2       0
       4       0       1
     133     187     185     135
 2     203       4       2       0
       4       0       1
     136     182     184     134
 2     204       4       2       0
       4       0       1
     135     185     183     137
 2     205       4       2       0
       4       0       1
     138     180     182     136
 2     206       4       2       0
       4       0       1
     137     183     181     139
 2     207       4       2       0
       4       0       1
     140     178     180     138
 2     208       4       2       0
       4       0       1
     139     181     179     141
 2     209       4       2       0
       4       0       1
     142     176     178     140
 2     210       4       2       0
       4       0       1
     141     179     177     143
 2     211       4       2       0
       4       0       1
     144     174     176     142
 2     212       4       2       0
       4       0       1
     143     177     175     145
 2     213       4       2       0
       4       0       1
     146     172     174     144
 2     214       4       2       0
       4       0       1
     145     175     173     147
 2     215       4       2       0
       4       0       1
     148     170     172     146
 2     216       4       2       0
       4       0       1
     147     173     171     149
 2     217       4       2       0
       4       0       1
     150     168     170     148
 2     218       4       2       0
       4       0       1
     149     171     169     151
 2     219       4       2       0
       4       0       1
     152     166     168     150
 2     220       4       2       0
       4       0       1
     151     169     167     153
 2     221       4       2       0
       4       0       1
     154     164     166     152
 2     222       4       2       0
       4       0       1
     153     167     165     155
 2     223       4       2       0
       4       0       1
     156     163     164     154
 2     224       4       2       0
       4       0       1
     155     165     348     158
 2     225       4       2       0
       4       0       1
     352     161     163     156
 2     226       4       2       0
       4       0       1
     157     162     160     159
 2     227       4       2       0
       4       0       1
     158     348     162     157
 2     228       4       2       0
       4       0       1
     159     160     161     352
 2     229       4       2       0
       4       0       1
     160     222     221     161
 2     230       4       2       0
       4       0       1
     162     219     222     160
 2     231       4       2       0
       4       0       1
     161     221     218     163
 2     232       4       2       0
       4       0       1
     348     220     219     162
 2     233       4       2       0
       4       0       1
     163     218     216     164
 2     234       4       2       0
       4       0       1
     165     217     220     348
 2     235       4       2       0
       4       0       1
     164     216     214     166
 2     236       4       2       0
       4       0       1
     167     215     217     165
 2     237       4       2       0
       4       0       1
     166     214     212     168
 2     238       4       2       0
       4       0       1
     169     213     215     167
 2     239       4       2       0
       4       0       1
     168     212     210     170
 2     240       4       2       0
       4       0       1
     171     211     213     169
 2     241       4       2       0
       4       0       1
     170     210     208     172
 2     242       4       2       0
       4       0       1
     173     209     211     171
 2     243       4       2       0
       4       0       1
     172     208     206     174
 2     244       4       2       0
       4       0       1
     175     207     209     173
 2     245       4       2       0
       4       0       1
     174     206     204     176
 2     246       4       2       0
       4       0       1
     177     205     207     175
 2     247       4       2       0
       4       0       1
     176     204     202     178
 2     248       4       2       0
       4       0       1
     179     203     205     177
 2     249       4       2       0
       4       0       1
     178     202     200     180
 2     250       4       2       0
       4       0       1
     181     201     203     179
 2     251       4       2       0
       4       0       1
     180     200     198     182
 2     252       4       2       0
       4       0       1
     183     199     201     181
 2     253       4       2       0
       4       0       1
     182     198     196     184
 2     254       4       2       0
       4       0       1
     185     197     199     183
 2     255       4       2       0
       4       0       1
     184     196     194     186
 2     256       4       2       0
       4       0       1
     187     195     197     185
 2     257       4       2       0
       4       0       1
     186     194     192     190
 2     258       4       2       0
       4       0       1
     189     191     193     188
 2     259       4       2       0
       4       0       1
     188     193     195     187
 2     260       4       2       0
       4       0       1
     190     192     191     189
 2     261       4       2       0
       4       0       1
     192     250     249     191
 2     262       4       2       0
       4       0       1
     191     249     248     193
 2     263       4       2       0
       4       0       1
     194     346     250     192
 2     264       4       2       0
       4       0       1
     193     248     247     195
 2     265       4       2       0
       4       0       1
     196     245     346     194
 2     266       4       2       0
       4       0       1
     195     247     246     197
 2     267       4       2       0
       4       0       1
     198     243     245     196
 2     268       4       2       0
       4       0       1
     197     246     244     199
 2     269       4       2       0
       4       0       1
     200     241     243     198
 2     270       4       2       0
       4       0       1
     199     244     242     201
 2     271       4       2       0
       4       0       1
     202     239     241     200
 2     272       4       2       0
       4       0       1
     201     242     240     203
 2     273       4       2       0
       4       0       1
     204     237     239     202
 2     274       4       2       0
       4       0       1
     203     240     238     205
 2     275       4       2       0
       4       0       1
     206     235     237     204
 2     276       4       2       0
       4       0       1
     205     238     236     207
 2     277       4       2       0
       4       0       1
     208     234     235     206
 2     278       4       2       0
       4       0       1
     207     236     347     209
 2     279       4       2       0
       4       0       1
     210     232     234     208
 2     280       4       2       0
       4       0       1
     209     347     233     211
 2     281       4       2       0
       4       0       1
     212     230     232     210
 2     282       4       2       0
       4       0       1
     211     233     231     213
 2     283       4       2       0
       4       0       1
     214     351     230     212
 2     284       4       2       0
       4       0       1
     213     231     229     215
 2     285       4       2       0
       4       0       1
     216     350     351     214
 2     286       4       2       0
       4       0       1
     215     229     228     217
 2     287       4       2       0
       4       0       1
     218     226     350     216
 2     288       4       2       0
       4       0       1
     217     228     227     220
 2     289       4       2       0
       4       0       1
     221     224     226     218
 2     290       4       2       0
       4       0       1
     219     225     223     222
 2     291       4       2       0
       4       0       1
     220     227     225     219
 2     292       4       2       0
       4       0       1
     222     223     224     221
 2     293       4       2       0
       4       0       1
     223     281     280     224
 2     294       4       2       0
       4       0       1
     225     349     281     223
 2     295       4       2       0
       4       0       1
     224     280     278     226
 2     296       4       2       0
       4       0       1
     227     279     349     225
 2     297       4       2       0
       4       0       1
     226     278     276     350
 2     298       4       2       0
       4       0       1
     228     277     279     227
 2     299       4       2       0
       4       0       1
     350     276     274     351
 2     300       4       2       0
       4       0       1
     229     275     277     228
 2     301       4       2       0
       4       0       1
     351     274     272     230
 2     302       4       2       0
       4       0       1
     231     273     275     229
 2     303       4       2       0
       4       0       1
     230     272     270     232
 2     304       4       2       0
       4       0       1
     233     271     273     231
 2     305       4       2       0
       4       0       1
     232     270     268     234
 2     306       4       2       0
       4       0       1
     347     269     271     233
 2     307       4       2       0
       4       0       1
     234     268     266     235
 2     308       4       2       0
       4       0       1
     236     267     269     347
 2     309       4       2       0
       4       0       1
     235     266     264     237
 2     310       4       2       0
       4       0       1
     238     265     267     236
 2     311       4       2       0
       4       0       1
     237     264     262     239
 2     312       4       2       0
       4       0       1
     240     263     265     238
 2     313       4       2       0
       4       0       1
     239     262     260     241
 2     314       4       2       0
       4       0       1
     242     261     263     240
 2     315       4       2       0
       4       0       1
     241     260     258     243
 2     316       4       2       0
       4       0       1
     244     259     261     242
 2     317       4       2       0
       4       0       1
     243     258     256     245
 2     318       4       2       0
       4       0       1
     246     257     259     244
 2     319       4       2       0
       4       0       1
     245     256     254     346
 2     320       4       2       0
       4       0       1
     247     255     257     246
 2     321       4       2       0
       4       0       1
     346     254     252     250
 2     322       4       2       0
       4       0       1
     249     251     253     248
 2     323       4       2       0
       4       0       1
     248     253     255     247
 2     324       4       2       0
       4       0       1
     250     252     251     249
 2     325       4       2       0
       4       0       1
     252     299     298     251
 2     326       4       2       0
       4       0       1
     251     298     297     253
 2     327       4       2       0
       4       0       1
     254     300     299     252
 2     328       4       2       0
       4       0       1
     253     297     296     255
 2     329       4       2       0
       4       0       1
     256     301     300     254
 2     330       4       2       0
       4       0       1
     255     296     295     257
 2     331       4       2       0
       4       0       1
     258     302     301     256
 2     332       4       2       0
       4       0       1
     257     295     294     259
 2     333       4       2       0
       4       0       1
     260     303     302     258
 2     334       4       2       0
       4       0       1
     259     294     293     261
 2     335       4       2       0
       4       0       1
     262     304     303     260
 2     336       4       2       0
       4       0       1
     261     293     292     263
 2     337       4       2       0
       4       0       1
     264     305     304     262
 2     338       4       2       0
       4       0       1
     263     292     291     265
 2     339       4       2       0
       4       0       1
     266     306     305     264
 2     340       4       2       0
       4       0       1
     265     291     290     267
 2     341       4       2       0
       4       0       1
     268     307     306     266
 2     342       4       2       0
       4       0       1
     267     290     289     269
 2     343       4       2       0
       4       0       1
     270     308     307     268
 2     344       4       2       0
       4       0       1
     269     289     288     271
 2     345       4       2       0
       4       0       1
     272     309     308     270
 2     346       4       2       0
       4       0       1
     271     288     287     273
 2     347       4       2       0
       4       0       1
     274     310     309     272
 2     348       4       2       0
       4       0       1
     273     287     286     275
 2     349       4       2       0
       4       0       1
     276     311     310     274
 2     350       4       2       0
       4       0       1
     275     286     285     277
 2     351       4       2       0
       4       0       1
     278     312     311     276
 2     352       4       2       0
       4       0       1
     277     285     284     279
 2     353       4       2       0
       4       0       1
     280     313     312     278
 2     354       4       2       0
       4       0       1
     349     283     282     281
 2     355       4       2       0
       4       0       1
     279     284     283     349
 2     356       4       2       0
       4       0       1
     281     282     313     280
 2     357       4       2       0
       4       0       1
     282      38      37     313
 2     358       4       2       0
       4       0       1
     283      39      38     282
 2     359       4       2       0
       4       0       1
     284      40      39     283
 2     360       4       2       0
       4       0       1
     285      41      40     284
 2     361       4       2       0
       4       0       1
     286      42      41     285
 2     362       4       2       0
       4       0       1
     287      43      42     286
 2     363       4       2       0
       4       0       1
     288      44      43     287
 2     364       4       2       0
       4       0       1
     289      45      44     288
 2     365       4       2       0
       4       0       1
     290      46      45     289
 2     366       4       2       0
       4       0       1
     291      47      46     290
 2     367       4       2       0
       4       0       1
     292      48      47     291
 2     368       4       2       0
       4       0       1
     293      49      48     292
 2     369       4       2       0
       4       0       1
     294      50      49     293
 2     370       4       2       0
       4       0       1
     295      51      50     294
 2     371       4       2       0
       4       0       1
     296      52      51     295
 2     372       4       2       0
       4       0       1
     297      53      52     296
 2     373       4       2       0
       4       0       1
     298      54      53     297
 2     374       4       2       0
       4       0       1
     299      55      54     298
 2     375       4       2       0
       4       0       1
     300      56      55     299
 2     376       4       2       0
       4       0       1
     301      57      56     300
 2     377       4       2       0
       4       0       1
     302      58      57     301
 2     378       4       2       0
       4       0       1
     303      59      58     302
 2     379       4       2       0
       4       0       1
     304      60      59     303
 2     380       4       2       0
       4       0       1
     305      61      60     304
 2     381       4       2       0
       4       0       1
     306      62      61     305
 2     382       4       2       0
       4       0       1
     307      63      62     306
 2     383       4       2       0
       4       0       1
     308      64      63     307
 2     384       4       2       0
       4       0       1
     309      33      64     308
 2     385       4       2       0
       4       0       1
     310      34      33     309
 2     386       4       2       0
       4       0       1
     311      35      34     310
 2     387       4       2       0
       4       0       1
     312      36      35     311
 2     388       4       2       0
       4       0       1
     313      37      36     312
 2     389       4       2       0
       4       0       1
     314       1       2     345
 2     390       4       2       0
       4       0       1
     315      32       1     314
 2     391       4       2       0
       4       0       1
     316      31      32     315
 2     392       4       2       0
       4       0       1
     317      30      31     316
 2     393       4       2       0
       4       0       1
     318      29      30     317
 2     394       4       2       0
       4       0       1
     319      28      29     318
 2     395       4       2       0
       4       0       1
     320      27      28     319
 2     396       4       2       0
       4       0       1
     321      26      27     320
 2     397       4       2       0
       4       0       1
     322      25      26     321
 2     398       4       2       0
       4       0       1
     323      24      25     322
 2     399       4       2       0
       4       0       1
     324      23      24     323
 2     400       4       2       0
       4       0       1
     325      22      23     324
 2     401       4       2       0
       4       0       1
     326      21      22     325
 2     402       4       2       0
       4       0       1
     327      20      21     326
 2     403       4       2       0
       4       0       1
     328      19      20     327
 2     404       4       2       0
       4       0       1
     329      18      19     328
 2     405       4       2       0
       4       0       1
     330      17      18     329
 2     406       4       2       0
       4       0       1
     331      16      17     330
 2     407       4       2       0
       4       0       1
     332      15      16     331
 2     408       4       2       0
       4       0       1
     333      14      15     332
 2     409       4       2       0
       4       0       1
     334      13      14     333
 2     410       4       2       0
       4       0       1
     335      12      13     334
 2     411       4       2       0
       4       0       1
     336      11      12     335
 2     412       4       2       0
       4       0       1
     337      10      11     336
 2     413       4       2       0
       4       0       1
     338       9      10     337
 2     414       4       2       0
       4       0       1
     339       8       9     338
 2     415       4       2       0
       4       0       1
     340       7       8     339
 2     416       4       2       0
       4       0       1
     341       6       7     340
 2     417       4       2       0
       4       0       1
     342       5       6     341
 2     418       4       2       0
       4       0       1
     343       4       5     342
 2     419       4       2       0
       4       0       1
     344       3       4     343
 2     420       4       2       0
       4       0       1
     345       2       3     344
 2     421       2       2       0
       2       0       3
       3       2
 2     422       2       2       0
       2       0       3
      31      30
 2     423       2       2       0
       2       0       3
       5       4
 2     424       2       2       0
       2       0       3
       4       3
 2     425       2       2       0
       2       0       3
      25      24
 2     426       2       2       0
       2       0       3
      15      14
 2     427       2       2       0
       2       0       3
      29      28
 2     428       2       2       0
       2       0       3
      28      27
 2     429       2       2       0
       2       0       3
      27      26
 2     430       2       2       0
       2       0       3
      26      25
 2     431       2       2       0
       2       0       3
      24      23
 2     432       2       2       0
       2       0       3
      23      22
 2     433       2       2       0
       2       0       3
      22      21
 2     434       2       2       0
       2       0       3
      21      20
 2     435       2       2       0
       2       0       3
      20      19
 2     436       2       2       0
       2       0       3
      19      18
 2     437       2       2       0
       2       0       3
      18      17
 2     438       2       2       0
       2       0       3
      17      16
 2     439       2       2       0
       2       0       3
      16      15
 2     440       2       2       0
       2       0       3
      14      13
 2     441       2       2       0
       2       0       3
      13      12
 2     442       2       2       0
       2       0       3
      12      11
 2     443       2       2       0
       2       0       3
      11      10
 2     444       2       2       0
       2       0       3
      10       9
 2     445       2       2       0
       2       0       3
       9       8
 2     446       2       2       0
       2       0       3
       8       7
 2     447       2       2       0
       2       0       3
       7       6
 2     448       2       2       0
       2       0       3
       6       5
 2     449       2       2       0
       2       0       3
      32      31
 2     450       2       2       0
       2       0       3
       1      32
 2     451       2       2       0
       2       0       3
       2       1
 2     452       2       2       0
       2       0       3
      30      29
 2     453       2       2       0
       2       0       5
      38      37
 2     454       2       2       0
       2       0       5
      39      38
 2     455       2       2       0
       2       0       5
      40      39
 2     456       2       2       0
       2       0       5
      41      40
 2     457       2       2       0
       2       0       5
      42      41
 2     458       2       2       0
       2       0       5
      43      42
 2     459       2       2       0
       2       0       5
      44      43
 2     460       2       2       0
       2       0       5
      45      44
 2     461       2       2       0
       2       0       5
      46      45
 2     462       2       2       0
       2       0       5
      47      46
 2     463       2       2       0
       2       0       5
      48      47
 2     464       2       2       0
       2       0       5
      49      48
 2     465       2       2       0
       2       0       5
      50      49
 2     466       2       2       0
       2       0       5
      51      50
 2     467       2       2       0
       2       0       5
      52      51
 2     468       2       2       0
       2       0       5
      53      52
 2     469       2       2       0
       2       0       5
      54      53
 2     470       2       2       0
       2       0       5
      55      54
 2     471       2       2       0
       2       0       5
      56      55
 2     472       2       2       0
       2       0       5
      57      56
 2     473       2       2       0
       2       0       5
      58      57
 2     474       2       2       0
       2       0       5
      59      58
 2     475       2       2       0
       2       0       5
      60      59
 2     476       2       2       0
       2       0       5
      61      60
 2     477       2       2       0
       2       0       5
      62      61
 2     478       2       2       0
       2       0       5
      63      62
 2     479       2       2       0
       2       0       5
      64      63
 2     480       2       2       0
       2       0       5
      33      64
 2     481       2       2       0
       2       0       5
      34      33
 2     482       2       2       0
       2       0       5
      35      34
 2     483       2       2       0
       2       0       5
      36      35
 2     484       2       2       0
       2       0       5
      37      36
21       1     840      85
SELECTION   
       7       1       7       2       7       3       7       4       7       5
       7       6       7       7       7       8       7       9       7      10
       8      11       8      12       8      13       8      14       8      15
       8      16       8      17       8      18       8      19       8      20
       8      21       8      22       8      23       8      24       8      25
       8      26       8      27       8      28       8      29       8      30
       8      31       8      32       8      33       8      34       8      35
       8      36       8      37       8      38       8      39       8      40
       8      41       8      42       8      43       8      44       8      45
       8      46       8      47       8      48       8      49       8      50
       8      51       8      52       8      53       8      54       8      55
       8      56       8      57       8      58       8      59       8      60
       8      61       8      62       8      63       8      64       8      65
       8      66       8      67       8      68       8      69       8      70
       8      71       8      72       8      73       8      74       8      75
       8      76       8      77       8      78       8      79       8      80
       8      81       8      82       8      83       8      84       8      85
       8      86       8      87       8      88       8      89       8      90
       8      91       8      92       8      93       8      94       8      95
       8      96       8      97       8      98       8      99       8     100
       8     101       8     102       8     103       8     104       8     105
       8     106       8     107       8     108       8     109       8     110
       8     111       8     112       8     113       8     114       8     115
       8     116       8     117       8     118       8     119       8     120
       8     121       8     122       8     123       8     124       8     125
       8     126       8     127       8     128       8     129       8     130
       8     131       8     132       8     133       8     134       8     135
       8     136       8     137       8     138       8     139       8     140
       8     141       8     142       8     143       8     144       8     145
       8     146       8     147       8     148       8     149       8     150
       8     151       8     152       8     153       8     154       8     155
       8     156       8     157       8     158       8     159       8     160
       8     161       8     162       8     163       8     164       8     165
       8     166       8     167       8     168       8     169       8     170
       8     171       8     172       8     173       8     174       8     175
       8     176       8     177       8     178       8     179       8     180
       8     181       8     182       8     183       8     184       8     185
       8     186       8     187       8     188       8     189       8     190
       8     191       8     192       8     193       8     194       8     195
       8     196       8     197       8     198       8     199       8     200
       8     201       8     202       8     203       8     204       8     205
       8     206       8     207       8     208       8     209       8     210
       8     211       8     212       8     213       8     214       8     215
       8     216       8     217       8     218       8     219       8     220
       8     221       8     222       8     223       8     224       8     225
       8     226       8     227       8     228       8     229       8     230
       8     231       8     232       8     233       8     234       8     235
       8     236       8     237       8     238       8     239       8     240
       8     241       8     242       8     243       8     244       8     245
       8     246       8     247       8     248       8     249       8     250
       8     251       8     252       8     253       8     254       8     255
       8     256       8     257       8     258       8     259       8     260
       8     261       8     262       8     263       8     264       8     265
       8     266       8     267       8     268       8     269       8     270
       8     271       8     272       8     273       8     274       8     275
       8     276       8     277       8     278       8     279       8     280
       8     281       8     282       8     283       8     284       8     285
       8     286       8     287       8     288       8     289       8     290
       8     291       8     292       8     293       8     294       8     295
       8     296       8     297       8     298       8     299       8     300
       8     301       8     302       8     303       8     304       8     305
       8     306       8     307       8     308       8     309       8     310
       8     311       8     312       8     313       8     314       8     315
       8     316       8     317       8     318       8     319       8     320
       8     321       8     322       8     323       8     324       8     325
       8     326       8     327       8     328       8     329       8     330
       8     331       8     332       8     333       8     334       8     335
       8     336       8     337       8     338       8     339       8     340
       8     341       8     342       8     343       8     344       8     345
       8     346       8     347       8     348       8     349       8     350
       8     351       8     352       8     353       8     354       8     355
       8     356       8     357       8     358       8     359       8     360
       8     361       8     362       8     363       8     364       8     365
       8     366       8     367       8     368       8     369       8     370
       8     371       8     372       8     373       8     374       8     375
       8     376       8     377       8     378       8     379       8     380
       8     381       8     382       8     383       8     384       8     385
       8     386       8     387       8     388       8     389       8     390
       8     391       8     392       8     393       8     394       8     395
       8     396       8     397       8     398       8     399       8     400
       8     401       8     402       8     403       8     404       8     405
       8     406       8     407       8     408       8     409       8     410
       8     411       8     412       8     413       8     414       8     415
       8     416       8     417       8     418       8     419       8     420
21       2      64       8
FLOATER_1_2 
       6     453       6     454       6     455       6     456       6     457
       6     458       6     459       6     460       6     461       6     462
       6     463       6     464       6     465       6     466       6     467
       6     468       6     469       6     470       6     471       6     472
       6     473       6     474       6     475       6     476       6     477
       6     478       6     479       6     480       6     481       6     482
       6     483       6     484
99       0       0       1
