25       0       0       1
ICEM - POLYFLOW INTERFACE - Version 15.0.3 - "LengthUnitForPfl=_meter_"
26       0       0       1     113     140
 7-Aug-25   16:50:52     2.4
 1       1       0       2
-0.500000000E+01-0.612323400E-15-0.100000000E+02
 
 1       2       0       2
-0.461939764E+01-0.191341722E+01-0.100000000E+02
 
 1       3       0       2
-0.353553391E+01-0.353553391E+01-0.100000000E+02
 
 1       4       0       2
-0.191341722E+01-0.461939764E+01-0.100000000E+02
 
 1       5       0       2
 0.114083920E-13-0.500000000E+01-0.100000000E+02
 
 1       6       0       2
 0.191341722E+01-0.461939764E+01-0.100000000E+02
 
 1       7       0       2
 0.353553391E+01-0.353553391E+01-0.100000000E+02
 
 1       8       0       2
 0.461939764E+01-0.191341722E+01-0.100000000E+02
 
 1       9       0       2
 0.500000000E+01 0.124357862E-13-0.100000000E+02
 
 1      10       0       2
 0.461939764E+01 0.191341722E+01-0.100000000E+02
 
 1      11       0       2
 0.353553391E+01 0.353553391E+01-0.100000000E+02
 
 1      12       0       2
 0.191341722E+01 0.461939764E+01-0.100000000E+02
 
 1      13       0       2
-0.635517639E-14 0.500000000E+01-0.100000000E+02
 
 1      14       0       2
-0.191341722E+01 0.461939764E+01-0.100000000E+02
 
 1      15       0       2
-0.353553391E+01 0.353553391E+01-0.100000000E+02
 
 1      16       0       2
-0.461939764E+01 0.191341722E+01-0.100000000E+02
 
 1      17       0       2
-0.500000000E+01-0.480455129E-14 0.000000000E+00
 
 1      18       0       2
-0.461939764E+01-0.191341722E+01 0.000000000E+00
 
 1      19       0       2
-0.353553391E+01-0.353553391E+01 0.000000000E+00
 
 1      20       0       2
-0.191341722E+01-0.461939764E+01 0.000000000E+00
 
 1      21       0       2
 0.912172237E-14-0.500000000E+01 0.000000000E+00
 
 1      22       0       2
 0.191341722E+01-0.461939764E+01 0.000000000E+00
 
 1      23       0       2
 0.353553391E+01-0.353553391E+01 0.000000000E+00
 
 1      24       0       2
 0.461939764E+01-0.191341722E+01 0.000000000E+00
 
 1      25       0       2
 0.500000000E+01 0.103668947E-13 0.000000000E+00
 
 1      26       0       2
 0.461939764E+01 0.191341722E+01 0.000000000E+00
 
 1      27       0       2
 0.353553391E+01 0.353553391E+01 0.000000000E+00
 
 1      28       0       2
 0.191341722E+01 0.461939764E+01 0.000000000E+00
 
 1      29       0       2
-0.635517639E-14 0.500000000E+01 0.000000000E+00
 
 1      30       0       2
-0.191341722E+01 0.461939764E+01 0.000000000E+00
 
 1      31       0       2
-0.353553391E+01 0.353553391E+01 0.000000000E+00
 
 1      32       0       2
-0.461939764E+01 0.191341722E+01 0.000000000E+00
 
 1      33       0       2
 0.353471041E+01-0.353635716E+01-0.600329590E+01
 
 1      34       0       2
 0.191246152E+01-0.461979342E+01-0.600226307E+01
 
 1      35       0       2
 0.461901331E+01-0.191434526E+01-0.600371552E+01
 
 1      36       0       2
-0.930847309E-03-0.500000000E+01-0.600145054E+01
 
 1      37       0       2
 0.500000000E+01-0.840432651E-03-0.600342607E+01
 
 1      38       0       2
-0.191413522E+01-0.461910009E+01-0.600122499E+01
 
 1      39       0       2
 0.461963892E+01 0.191283441E+01-0.600390244E+01
 
 1      40       0       2
-0.353595281E+01-0.353511500E+01-0.600095177E+01
 
 1      41       0       2
 0.353585792E+01 0.353520989E+01-0.600336790E+01
 
 1      42       0       2
-0.461957407E+01-0.191299105E+01-0.600042248E+01
 
 1      43       0       2
 0.191371548E+01 0.461927414E+01-0.600212622E+01
 
 1      44       0       2
-0.500000000E+01 0.260764267E-03-0.600016642E+01
 
 1      45       0       2
 0.222132818E-03 0.500000000E+01-0.600135326E+01
 
 1      46       0       2
-0.191325819E+01 0.461946344E+01-0.600056934E+01
 
 1      47       0       2
-0.353541493E+01 0.353565288E+01-0.600010872E+01
 
 1      48       0       2
-0.461931849E+01 0.191360795E+01-0.600002146E+01
 
 1      49       0       2
-0.353506970E+01 0.353599787E+01-0.400032187E+01
 
 1      50       0       2
-0.461918736E+01 0.191392446E+01-0.400017262E+01
 
 1      51       0       2
-0.191275322E+01 0.461967278E+01-0.400076962E+01
 
 1      52       0       2
-0.500000000E+01 0.542375317E-03-0.400026274E+01
 
 1      53       0       2
 0.802943483E-03 0.500000000E+01-0.400148535E+01
 
 1      54       0       2
-0.461963892E+01-0.191283488E+01-0.400050592E+01
 
 1      55       0       2
 0.191424990E+01 0.461905241E+01-0.400233555E+01
 
 1      56       0       2
-0.353609705E+01-0.353497052E+01-0.400087976E+01
 
 1      57       0       2
 0.353623438E+01 0.353483319E+01-0.400324821E+01
 
 1      58       0       2
-0.191434562E+01-0.461901283E+01-0.400125933E+01
 
 1      59       0       2
 0.461980247E+01 0.191243970E+01-0.400375223E+01
 
 1      60       0       2
-0.117059518E-02-0.500000000E+01-0.400174952E+01
 
 1      61       0       2
 0.500000000E+01-0.111861213E-02-0.400364971E+01
 
 1      62       0       2
 0.191225457E+01-0.461987925E+01-0.400254822E+01
 
 1      63       0       2
 0.353466868E+01-0.353639889E+01-0.400323009E+01
 
 1      64       0       2
 0.353499007E+01-0.353607774E+01-0.200190639E+01
 
 1      65       0       2
 0.461911964E+01-0.191408825E+01-0.200197124E+01
 
 1      66       0       2
 0.500000000E+01-0.794344523E-03-0.200215101E+01
 
 1      67       0       2
 0.461970139E+01 0.191268373E+01-0.200208879E+01
 
 1      68       0       2
 0.353609180E+01 0.353497601E+01-0.200179696E+01
 
 1      69       0       2
 0.191411424E+01 0.461910868E+01-0.200132895E+01
 
 1      70       0       2
 0.691488443E-03 0.500000000E+01-0.200085950E+01
 
 1      71       0       2
-0.191285074E+01 0.461963224E+01-0.200047493E+01
 
 1      72       0       2
-0.353516889E+01 0.353589892E+01-0.200023246E+01
 
 1      73       0       2
-0.461923552E+01 0.191380906E+01-0.200013900E+01
 
 1      74       0       2
-0.500000000E+01 0.254708750E-03-0.200012445E+01
 
 1      75       0       2
-0.461950588E+01-0.191315591E+01-0.200025511E+01
 
 1      76       0       2
-0.353583598E+01-0.353523159E+01-0.200039601E+01
 
 1      77       0       2
-0.191377199E+01-0.461925077E+01-0.200057006E+01
 
 1      78       0       2
-0.563652953E-03-0.500000000E+01-0.200091672E+01
 
 1      79       0       2
 0.191299403E+01-0.461957312E+01-0.200083399E+01
 
 1      80       0       2
-0.461945438E+01-0.191328073E+01-0.800025177E+01
 
 1      81       0       2
-0.500000000E+01 0.323794411E-04-0.800006676E+01
 
 1      82       0       2
-0.461941576E+01 0.191337359E+01-0.799997902E+01
 
 1      83       0       2
-0.353560925E+01 0.353545856E+01-0.800004196E+01
 
 1      84       0       2
-0.191354680E+01 0.461934376E+01-0.800030041E+01
 
 1      85       0       2
-0.134172646E-03 0.500000000E+01-0.800072002E+01
 
 1      86       0       2
 0.191333044E+01 0.461943340E+01-0.800121403E+01
 
 1      87       0       2
 0.353557873E+01 0.353548908E+01-0.800172806E+01
 
 1      88       0       2
 0.461949682E+01 0.191317785E+01-0.800181580E+01
 
 1      89       0       2
 0.500000000E+01-0.417000381E-03-0.800194836E+01
 
 1      90       0       2
 0.461920023E+01-0.191389430E+01-0.800136948E+01
 
 1      91       0       2
 0.353510404E+01-0.353596377E+01-0.800156116E+01
 
 1      92       0       2
 0.191286743E+01-0.461962557E+01-0.800106621E+01
 
 1      93       0       2
-0.502841955E-03-0.500000000E+01-0.800081444E+01
 
 1      94       0       2
-0.191379237E+01-0.461924219E+01-0.800066280E+01
 
 1      95       0       2
-0.353573346E+01-0.353533435E+01-0.800046349E+01
 
 1      96       0       2
 0.461897993E+01-0.191442585E+01-0.400315666E+01
 
 1      97       0       2
 0.359344631E+00-0.160221148E+01-0.100000000E+02
 
 1      98       0       2
 0.110072088E+01-0.356862336E+00-0.100000000E+02
 
 1      99       0       2
 0.268132627E+00 0.188756859E+01-0.100000000E+02
 
 1     100       0       2
 0.162868190E+01 0.108114111E+01-0.100000000E+02
 
 1     101       0       2
-0.157128084E+01-0.262305474E+01-0.100000000E+02
 
 1     102       0       2
 0.441042855E-01-0.313066339E+01-0.100000000E+02
 
 1     103       0       2
 0.180201912E+01-0.275585675E+01-0.100000000E+02
 
 1     104       0       2
 0.274966264E+01-0.110228503E+01-0.100000000E+02
 
 1     105       0       2
 0.328583431E+01 0.736524224E+00-0.100000000E+02
 
 1     106       0       2
 0.233210897E+01 0.234097600E+01-0.100000000E+02
 
 1     107       0       2
 0.787403524E+00 0.336884642E+01-0.100000000E+02
 
 1     108       0       2
-0.922884643E+00 0.302851558E+01-0.100000000E+02
 
 1     109       0       2
-0.308888936E+01-0.187038529E+01-0.100000000E+02
 
 1     110       0       2
-0.126426053E+01-0.823192537E+00-0.100000000E+02
 
 1     111       0       2
-0.537285805E+00 0.629641473E+00-0.100000000E+02
 
 1     112       0       2
-0.309533811E+01 0.204720244E+00-0.100000000E+02
 
 1     113       0       2
-0.209011459E+01 0.186564887E+01-0.100000000E+02
 
 2       1       3       2       0
       3       0       1
      13      12     107
 2       2       3       2       0
       3       0       1
     108     107      99
 2       3       3       2       0
       3       0       1
     103       7       6
 2       4       3       2       0
       3       0       1
     105     100     106
 2       5       3       2       0
       3       0       1
     109       3       2
 2       6       3       2       0
       3       0       1
      10       9     105
 2       7       3       2       0
       3       0       1
     102      97     103
 2       8       3       2       0
       3       0       1
      16     112       1
 2       9       4       2       0
       4       0       1
      99     100      98     111
 2      10       4       2       0
       4       0       1
     109     101       4       3
 2      11       4       2       0
       4       0       1
     111      98      97     110
 2      12       4       2       0
       4       0       1
      98     104     103      97
 2      13       4       2       0
       4       0       1
      97     102     101     110
 2      14       4       2       0
       4       0       1
     100     105     104      98
 2      15       4       2       0
       4       0       1
      99     111     113     108
 2      16       4       2       0
       4       0       1
      99     107     106     100
 2      17       4       2       0
       4       0       1
     111     110     112     113
 2      18       4       2       0
       4       0       1
     102       5       4     101
 2      19       4       2       0
       4       0       1
     108      14      13     107
 2      20       4       2       0
       4       0       1
     104       8       7     103
 2      21       4       2       0
       4       0       1
     105       9       8     104
 2      22       4       2       0
       4       0       1
      16      15     113     112
 2      23       4       2       0
       4       0       1
      10     105     106      11
 2      24       4       2       0
       4       0       1
     107      12      11     106
 2      25       4       2       0
       4       0       1
      15      14     108     113
 2      26       4       2       0
       4       0       1
     102     103       6       5
 2      27       4       2       0
       4       0       1
     112     109       2       1
 2      28       4       2       0
       4       0       1
     112     110     101     109
 2      29       4       2       0
       4       0       1
      34      36      93      92
 2      30       4       2       0
       4       0       1
      36      38      94      93
 2      31       4       2       0
       4       0       1
      38      40      95      94
 2      32       4       2       0
       4       0       1
      40      42      80      95
 2      33       4       2       0
       4       0       1
      42      44      81      80
 2      34       4       2       0
       4       0       1
      44      48      82      81
 2      35       4       2       0
       4       0       1
      48      47      83      82
 2      36       4       2       0
       4       0       1
      47      46      84      83
 2      37       4       2       0
       4       0       1
      46      45      85      84
 2      38       4       2       0
       4       0       1
      45      43      86      85
 2      39       4       2       0
       4       0       1
      43      41      87      86
 2      40       4       2       0
       4       0       1
      41      39      88      87
 2      41       4       2       0
       4       0       1
      39      37      89      88
 2      42       4       2       0
       4       0       1
      37      35      90      89
 2      43       4       2       0
       4       0       1
      35      33      91      90
 2      44       4       2       0
       4       0       1
      91      33      34      92
 2      45       4       2       0
       4       0       1
      33      63      62      34
 2      46       4       2       0
       4       0       1
      35      96      63      33
 2      47       4       2       0
       4       0       1
      34      62      60      36
 2      48       4       2       0
       4       0       1
      37      61      96      35
 2      49       4       2       0
       4       0       1
      36      60      58      38
 2      50       4       2       0
       4       0       1
      39      59      61      37
 2      51       4       2       0
       4       0       1
      38      58      56      40
 2      52       4       2       0
       4       0       1
      41      57      59      39
 2      53       4       2       0
       4       0       1
      40      56      54      42
 2      54       4       2       0
       4       0       1
      43      55      57      41
 2      55       4       2       0
       4       0       1
      42      54      52      44
 2      56       4       2       0
       4       0       1
      45      53      55      43
 2      57       4       2       0
       4       0       1
      44      52      50      48
 2      58       4       2       0
       4       0       1
      47      49      51      46
 2      59       4       2       0
       4       0       1
      46      51      53      45
 2      60       4       2       0
       4       0       1
      48      50      49      47
 2      61       4       2       0
       4       0       1
      50      73      72      49
 2      62       4       2       0
       4       0       1
      49      72      71      51
 2      63       4       2       0
       4       0       1
      52      74      73      50
 2      64       4       2       0
       4       0       1
      51      71      70      53
 2      65       4       2       0
       4       0       1
      54      75      74      52
 2      66       4       2       0
       4       0       1
      53      70      69      55
 2      67       4       2       0
       4       0       1
      56      76      75      54
 2      68       4       2       0
       4       0       1
      55      69      68      57
 2      69       4       2       0
       4       0       1
      58      77      76      56
 2      70       4       2       0
       4       0       1
      57      68      67      59
 2      71       4       2       0
       4       0       1
      60      78      77      58
 2      72       4       2       0
       4       0       1
      59      67      66      61
 2      73       4       2       0
       4       0       1
      62      79      78      60
 2      74       4       2       0
       4       0       1
      96      65      64      63
 2      75       4       2       0
       4       0       1
      61      66      65      96
 2      76       4       2       0
       4       0       1
      63      64      79      62
 2      77       4       2       0
       4       0       1
      64      23      22      79
 2      78       4       2       0
       4       0       1
      65      24      23      64
 2      79       4       2       0
       4       0       1
      66      25      24      65
 2      80       4       2       0
       4       0       1
      67      26      25      66
 2      81       4       2       0
       4       0       1
      68      27      26      67
 2      82       4       2       0
       4       0       1
      69      28      27      68
 2      83       4       2       0
       4       0       1
      70      29      28      69
 2      84       4       2       0
       4       0       1
      71      30      29      70
 2      85       4       2       0
       4       0       1
      72      31      30      71
 2      86       4       2       0
       4       0       1
      73      32      31      72
 2      87       4       2       0
       4       0       1
      74      17      32      73
 2      88       4       2       0
       4       0       1
      75      18      17      74
 2      89       4       2       0
       4       0       1
      76      19      18      75
 2      90       4       2       0
       4       0       1
      77      20      19      76
 2      91       4       2       0
       4       0       1
      78      21      20      77
 2      92       4       2       0
       4       0       1
      79      22      21      78
 2      93       4       2       0
       4       0       1
      80       2       3      95
 2      94       4       2       0
       4       0       1
      81       1       2      80
 2      95       4       2       0
       4       0       1
      82      16       1      81
 2      96       4       2       0
       4       0       1
      83      15      16      82
 2      97       4       2       0
       4       0       1
      84      14      15      83
 2      98       4       2       0
       4       0       1
      85      13      14      84
 2      99       4       2       0
       4       0       1
      86      12      13      85
 2     100       4       2       0
       4       0       1
      87      11      12      86
 2     101       4       2       0
       4       0       1
      88      10      11      87
 2     102       4       2       0
       4       0       1
      89       9      10      88
 2     103       4       2       0
       4       0       1
      90       8       9      89
 2     104       4       2       0
       4       0       1
      91       7       8      90
 2     105       4       2       0
       4       0       1
      92       6       7      91
 2     106       4       2       0
       4       0       1
      93       5       6      92
 2     107       4       2       0
       4       0       1
      94       4       5      93
 2     108       4       2       0
       4       0       1
      95       3       4      94
 2     109       2       2       0
       2       0       3
      13      12
 2     110       2       2       0
       2       0       3
       7       6
 2     111       2       2       0
       2       0       3
       3       2
 2     112       2       2       0
       2       0       3
      10       9
 2     113       2       2       0
       2       0       3
       1      16
 2     114       2       2       0
       2       0       3
       4       3
 2     115       2       2       0
       2       0       3
       5       4
 2     116       2       2       0
       2       0       3
      14      13
 2     117       2       2       0
       2       0       3
       8       7
 2     118       2       2       0
       2       0       3
       9       8
 2     119       2       2       0
       2       0       3
      16      15
 2     120       2       2       0
       2       0       3
      11      10
 2     121       2       2       0
       2       0       3
      12      11
 2     122       2       2       0
       2       0       3
      15      14
 2     123       2       2       0
       2       0       3
       6       5
 2     124       2       2       0
       2       0       3
       2       1
 2     125       2       2       0
       2       0       5
      23      22
 2     126       2       2       0
       2       0       5
      24      23
 2     127       2       2       0
       2       0       5
      25      24
 2     128       2       2       0
       2       0       5
      26      25
 2     129       2       2       0
       2       0       5
      27      26
 2     130       2       2       0
       2       0       5
      28      27
 2     131       2       2       0
       2       0       5
      29      28
 2     132       2       2       0
       2       0       5
      30      29
 2     133       2       2       0
       2       0       5
      31      30
 2     134       2       2       0
       2       0       5
      32      31
 2     135       2       2       0
       2       0       5
      17      32
 2     136       2       2       0
       2       0       5
      18      17
 2     137       2       2       0
       2       0       5
      19      18
 2     138       2       2       0
       2       0       5
      20      19
 2     139       2       2       0
       2       0       5
      21      20
 2     140       2       2       0
       2       0       5
      22      21
21       1     216      23
SELECTION   
       7       1       7       2       7       3       7       4       7       5
       7       6       7       7       7       8       8       9       8      10
       8      11       8      12       8      13       8      14       8      15
       8      16       8      17       8      18       8      19       8      20
       8      21       8      22       8      23       8      24       8      25
       8      26       8      27       8      28       8      29       8      30
       8      31       8      32       8      33       8      34       8      35
       8      36       8      37       8      38       8      39       8      40
       8      41       8      42       8      43       8      44       8      45
       8      46       8      47       8      48       8      49       8      50
       8      51       8      52       8      53       8      54       8      55
       8      56       8      57       8      58       8      59       8      60
       8      61       8      62       8      63       8      64       8      65
       8      66       8      67       8      68       8      69       8      70
       8      71       8      72       8      73       8      74       8      75
       8      76       8      77       8      78       8      79       8      80
       8      81       8      82       8      83       8      84       8      85
       8      86       8      87       8      88       8      89       8      90
       8      91       8      92       8      93       8      94       8      95
       8      96       8      97       8      98       8      99       8     100
       8     101       8     102       8     103       8     104       8     105
       8     106       8     107       8     108
21       2      32       5
FLOATER_1_2 
       6     125       6     126       6     127       6     128       6     129
       6     130       6     131       6     132       6     133       6     134
       6     135       6     136       6     137       6     138       6     139
       6     140
99       0       0       1
