25       0       0       1
ICEM - POLYFLOW INTERFACE - Version 15.0.3 - "LengthUnitForPfl=_meter_"
26       0       0       1     486     576
29-Nov-25   16:42:37     2.4
 1       1       0       2
 0.100000000E+02 0.000000000E+00 0.100000000E+02
 
 1       2       0       2
 0.100000000E+02 0.100000000E+02 0.100000000E+02
 
 1       3       0       2
 0.100000000E+02 0.125000000E+01 0.100000000E+02
 
 1       4       0       2
 0.100000000E+02 0.250000000E+01 0.100000000E+02
 
 1       5       0       2
 0.100000000E+02 0.375000000E+01 0.100000000E+02
 
 1       6       0       2
 0.100000000E+02 0.500000000E+01 0.100000000E+02
 
 1       7       0       2
 0.100000000E+02 0.625000000E+01 0.100000000E+02
 
 1       8       0       2
 0.100000000E+02 0.750000000E+01 0.100000000E+02
 
 1       9       0       2
 0.100000000E+02 0.875000000E+01 0.100000000E+02
 
 1      10       0       2
 0.100000000E+02 0.000000000E+00 0.000000000E+00
 
 1      11       0       2
 0.100000000E+02 0.000000000E+00 0.125000000E+01
 
 1      12       0       2
 0.100000000E+02 0.000000000E+00 0.250000000E+01
 
 1      13       0       2
 0.100000000E+02 0.000000000E+00 0.375000000E+01
 
 1      14       0       2
 0.100000000E+02 0.000000000E+00 0.500000000E+01
 
 1      15       0       2
 0.100000000E+02 0.000000000E+00 0.625000000E+01
 
 1      16       0       2
 0.100000000E+02 0.000000000E+00 0.750000000E+01
 
 1      17       0       2
 0.100000000E+02 0.000000000E+00 0.875000000E+01
 
 1      18       0       2
 0.100000000E+02 0.100000000E+02 0.000000000E+00
 
 1      19       0       2
 0.100000000E+02 0.125000000E+01 0.000000000E+00
 
 1      20       0       2
 0.100000000E+02 0.250000000E+01 0.000000000E+00
 
 1      21       0       2
 0.100000000E+02 0.375000000E+01 0.000000000E+00
 
 1      22       0       2
 0.100000000E+02 0.500000000E+01 0.000000000E+00
 
 1      23       0       2
 0.100000000E+02 0.625000000E+01 0.000000000E+00
 
 1      24       0       2
 0.100000000E+02 0.750000000E+01 0.000000000E+00
 
 1      25       0       2
 0.100000000E+02 0.875000000E+01 0.000000000E+00
 
 1      26       0       2
 0.100000000E+02 0.100000000E+02 0.125000000E+01
 
 1      27       0       2
 0.100000000E+02 0.100000000E+02 0.250000000E+01
 
 1      28       0       2
 0.100000000E+02 0.100000000E+02 0.375000000E+01
 
 1      29       0       2
 0.100000000E+02 0.100000000E+02 0.500000000E+01
 
 1      30       0       2
 0.100000000E+02 0.100000000E+02 0.625000000E+01
 
 1      31       0       2
 0.100000000E+02 0.100000000E+02 0.750000000E+01
 
 1      32       0       2
 0.100000000E+02 0.100000000E+02 0.875000000E+01
 
 1      33       0       2
 0.100000000E+02 0.500000000E+01 0.500000000E+01
 
 1      34       0       2
 0.100000000E+02 0.625000000E+01 0.500000000E+01
 
 1      35       0       2
 0.100000000E+02 0.500000000E+01 0.375000000E+01
 
 1      36       0       2
 0.100000000E+02 0.500000000E+01 0.625000000E+01
 
 1      37       0       2
 0.100000000E+02 0.625000000E+01 0.625000000E+01
 
 1      38       0       2
 0.100000000E+02 0.625000000E+01 0.375000000E+01
 
 1      39       0       2
 0.100000000E+02 0.375000000E+01 0.375000000E+01
 
 1      40       0       2
 0.100000000E+02 0.375000000E+01 0.625000000E+01
 
 1      41       0       2
 0.100000000E+02 0.750000000E+01 0.500000000E+01
 
 1      42       0       2
 0.100000000E+02 0.750000000E+01 0.375000000E+01
 
 1      43       0       2
 0.100000000E+02 0.250000000E+01 0.375000000E+01
 
 1      44       0       2
 0.100000000E+02 0.375000000E+01 0.750000000E+01
 
 1      45       0       2
 0.100000000E+02 0.250000000E+01 0.625000000E+01
 
 1      46       0       2
 0.100000000E+02 0.500000000E+01 0.750000000E+01
 
 1      47       0       2
 0.100000000E+02 0.625000000E+01 0.750000000E+01
 
 1      48       0       2
 0.100000000E+02 0.250000000E+01 0.250000000E+01
 
 1      49       0       2
 0.100000000E+02 0.250000000E+01 0.750000000E+01
 
 1      50       0       2
 0.100000000E+02 0.875000000E+01 0.750000000E+01
 
 1      51       0       2
 0.100000000E+02 0.875000000E+01 0.625000000E+01
 
 1      52       0       2
 0.100000000E+02 0.875000000E+01 0.500000000E+01
 
 1      53       0       2
 0.100000000E+02 0.875000000E+01 0.375000000E+01
 
 1      54       0       2
 0.100000000E+02 0.875000000E+01 0.250000000E+01
 
 1      55       0       2
 0.100000000E+02 0.875000000E+01 0.125000000E+01
 
 1      56       0       2
 0.100000000E+02 0.750000000E+01 0.125000000E+01
 
 1      57       0       2
 0.100000000E+02 0.625000000E+01 0.125000000E+01
 
 1      58       0       2
 0.100000000E+02 0.500000000E+01 0.125000000E+01
 
 1      59       0       2
 0.100000000E+02 0.375000000E+01 0.125000000E+01
 
 1      60       0       2
 0.100000000E+02 0.250000000E+01 0.125000000E+01
 
 1      61       0       2
 0.100000000E+02 0.125000000E+01 0.125000000E+01
 
 1      62       0       2
 0.100000000E+02 0.125000000E+01 0.250000000E+01
 
 1      63       0       2
 0.100000000E+02 0.125000000E+01 0.375000000E+01
 
 1      64       0       2
 0.100000000E+02 0.125000000E+01 0.500000000E+01
 
 1      65       0       2
 0.100000000E+02 0.125000000E+01 0.625000000E+01
 
 1      66       0       2
 0.100000000E+02 0.125000000E+01 0.750000000E+01
 
 1      67       0       2
 0.100000000E+02 0.125000000E+01 0.875000000E+01
 
 1      68       0       2
 0.100000000E+02 0.250000000E+01 0.875000000E+01
 
 1      69       0       2
 0.100000000E+02 0.375000000E+01 0.875000000E+01
 
 1      70       0       2
 0.100000000E+02 0.500000000E+01 0.875000000E+01
 
 1      71       0       2
 0.100000000E+02 0.625000000E+01 0.875000000E+01
 
 1      72       0       2
 0.100000000E+02 0.750000000E+01 0.875000000E+01
 
 1      73       0       2
 0.100000000E+02 0.875000000E+01 0.875000000E+01
 
 1      74       0       2
 0.100000000E+02 0.500000000E+01 0.250000000E+01
 
 1      75       0       2
 0.100000000E+02 0.375000000E+01 0.500000000E+01
 
 1      76       0       2
 0.100000000E+02 0.750000000E+01 0.250000000E+01
 
 1      77       0       2
 0.100000000E+02 0.750000000E+01 0.750000000E+01
 
 1      78       0       2
 0.100000000E+02 0.250000000E+01 0.500000000E+01
 
 1      79       0       2
 0.100000000E+02 0.750000000E+01 0.625000000E+01
 
 1      80       0       2
 0.100000000E+02 0.375000000E+01 0.250000000E+01
 
 1      81       0       2
 0.100000000E+02 0.625000000E+01 0.250000000E+01
 
 1      82       0       2
 0.000000000E+00 0.100000000E+02 0.000000000E+00
 
 1      83       0       2
 0.000000000E+00 0.100000000E+02 0.100000000E+02
 
 1      84       0       2
 0.000000000E+00 0.100000000E+02 0.125000000E+01
 
 1      85       0       2
 0.000000000E+00 0.100000000E+02 0.250000000E+01
 
 1      86       0       2
 0.000000000E+00 0.100000000E+02 0.375000000E+01
 
 1      87       0       2
 0.000000000E+00 0.100000000E+02 0.500000000E+01
 
 1      88       0       2
 0.000000000E+00 0.100000000E+02 0.625000000E+01
 
 1      89       0       2
 0.000000000E+00 0.100000000E+02 0.750000000E+01
 
 1      90       0       2
 0.000000000E+00 0.100000000E+02 0.875000000E+01
 
 1      91       0       2
 0.100000000E+02 0.100000000E+02 0.100000000E+02
 
 1      92       0       2
 0.875000000E+01 0.100000000E+02 0.100000000E+02
 
 1      93       0       2
 0.750000000E+01 0.100000000E+02 0.100000000E+02
 
 1      94       0       2
 0.625000000E+01 0.100000000E+02 0.100000000E+02
 
 1      95       0       2
 0.500000000E+01 0.100000000E+02 0.100000000E+02
 
 1      96       0       2
 0.375000000E+01 0.100000000E+02 0.100000000E+02
 
 1      97       0       2
 0.250000000E+01 0.100000000E+02 0.100000000E+02
 
 1      98       0       2
 0.125000000E+01 0.100000000E+02 0.100000000E+02
 
 1      99       0       2
 0.100000000E+02 0.100000000E+02 0.000000000E+00
 
 1     100       0       2
 0.100000000E+02 0.100000000E+02 0.125000000E+01
 
 1     101       0       2
 0.100000000E+02 0.100000000E+02 0.250000000E+01
 
 1     102       0       2
 0.100000000E+02 0.100000000E+02 0.375000000E+01
 
 1     103       0       2
 0.100000000E+02 0.100000000E+02 0.500000000E+01
 
 1     104       0       2
 0.100000000E+02 0.100000000E+02 0.625000000E+01
 
 1     105       0       2
 0.100000000E+02 0.100000000E+02 0.750000000E+01
 
 1     106       0       2
 0.100000000E+02 0.100000000E+02 0.875000000E+01
 
 1     107       0       2
 0.875000000E+01 0.100000000E+02 0.000000000E+00
 
 1     108       0       2
 0.750000000E+01 0.100000000E+02 0.000000000E+00
 
 1     109       0       2
 0.625000000E+01 0.100000000E+02 0.000000000E+00
 
 1     110       0       2
 0.500000000E+01 0.100000000E+02 0.000000000E+00
 
 1     111       0       2
 0.375000000E+01 0.100000000E+02 0.000000000E+00
 
 1     112       0       2
 0.250000000E+01 0.100000000E+02 0.000000000E+00
 
 1     113       0       2
 0.125000000E+01 0.100000000E+02 0.000000000E+00
 
 1     114       0       2
 0.500245142E+01 0.100000000E+02 0.374999690E+01
 
 1     115       0       2
 0.625000000E+01 0.100000000E+02 0.500000000E+01
 
 1     116       0       2
 0.500000000E+01 0.100000000E+02 0.625000000E+01
 
 1     117       0       2
 0.375000000E+01 0.100000000E+02 0.625000000E+01
 
 1     118       0       2
 0.375000000E+01 0.100000000E+02 0.375000000E+01
 
 1     119       0       2
 0.625980520E+01 0.100000000E+02 0.375301576E+01
 
 1     120       0       2
 0.625000000E+01 0.100000000E+02 0.625000000E+01
 
 1     121       0       2
 0.250000000E+01 0.100000000E+02 0.625000000E+01
 
 1     122       0       2
 0.375000000E+01 0.100000000E+02 0.250000000E+01
 
 1     123       0       2
 0.250000000E+01 0.100000000E+02 0.375000000E+01
 
 1     124       0       2
 0.751375866E+01 0.100000000E+02 0.375679922E+01
 
 1     125       0       2
 0.500000000E+01 0.100000000E+02 0.250000000E+01
 
 1     126       0       2
 0.625000000E+01 0.100000000E+02 0.250000000E+01
 
 1     127       0       2
 0.750603580E+01 0.100000000E+02 0.500203657E+01
 
 1     128       0       2
 0.750000000E+01 0.100000000E+02 0.625000000E+01
 
 1     129       0       2
 0.250000000E+01 0.100000000E+02 0.750000000E+01
 
 1     130       0       2
 0.250000000E+01 0.100000000E+02 0.250000000E+01
 
 1     131       0       2
 0.750000000E+01 0.100000000E+02 0.250000000E+01
 
 1     132       0       2
 0.750000000E+01 0.100000000E+02 0.750000000E+01
 
 1     133       0       2
 0.125000000E+01 0.100000000E+02 0.750000000E+01
 
 1     134       0       2
 0.125000000E+01 0.100000000E+02 0.625000000E+01
 
 1     135       0       2
 0.125000000E+01 0.100000000E+02 0.500000000E+01
 
 1     136       0       2
 0.125000000E+01 0.100000000E+02 0.375000000E+01
 
 1     137       0       2
 0.125000000E+01 0.100000000E+02 0.250000000E+01
 
 1     138       0       2
 0.125000000E+01 0.100000000E+02 0.125000000E+01
 
 1     139       0       2
 0.250000000E+01 0.100000000E+02 0.125000000E+01
 
 1     140       0       2
 0.375000000E+01 0.100000000E+02 0.125000000E+01
 
 1     141       0       2
 0.500000000E+01 0.100000000E+02 0.125000000E+01
 
 1     142       0       2
 0.625000000E+01 0.100000000E+02 0.125000000E+01
 
 1     143       0       2
 0.750000000E+01 0.100000000E+02 0.125000000E+01
 
 1     144       0       2
 0.875000000E+01 0.100000000E+02 0.125000000E+01
 
 1     145       0       2
 0.875000000E+01 0.100000000E+02 0.250000000E+01
 
 1     146       0       2
 0.876558685E+01 0.100000000E+02 0.375259447E+01
 
 1     147       0       2
 0.876130295E+01 0.100000000E+02 0.501096010E+01
 
 1     148       0       2
 0.875000000E+01 0.100000000E+02 0.625000000E+01
 
 1     149       0       2
 0.875000000E+01 0.100000000E+02 0.750000000E+01
 
 1     150       0       2
 0.875000000E+01 0.100000000E+02 0.875000000E+01
 
 1     151       0       2
 0.750000000E+01 0.100000000E+02 0.875000000E+01
 
 1     152       0       2
 0.625000000E+01 0.100000000E+02 0.875000000E+01
 
 1     153       0       2
 0.500000000E+01 0.100000000E+02 0.875000000E+01
 
 1     154       0       2
 0.375000000E+01 0.100000000E+02 0.875000000E+01
 
 1     155       0       2
 0.250000000E+01 0.100000000E+02 0.875000000E+01
 
 1     156       0       2
 0.125000000E+01 0.100000000E+02 0.875000000E+01
 
 1     157       0       2
 0.500000000E+01 0.100000000E+02 0.750000000E+01
 
 1     158       0       2
 0.375000000E+01 0.100000000E+02 0.500000000E+01
 
 1     159       0       2
 0.250000000E+01 0.100000000E+02 0.500000000E+01
 
 1     160       0       2
 0.375000000E+01 0.100000000E+02 0.750000000E+01
 
 1     161       0       2
 0.625000000E+01 0.100000000E+02 0.750000000E+01
 
 1     162       0       2
 0.500000000E+01 0.100000000E+02 0.500000000E+01
 
 1     163       0       2
 0.100000000E+02 0.100000000E+02 0.100000000E+02
 
 1     164       0       2
 0.000000000E+00 0.100000000E+02 0.100000000E+02
 
 1     165       0       2
 0.875000000E+01 0.100000000E+02 0.100000000E+02
 
 1     166       0       2
 0.750000000E+01 0.100000000E+02 0.100000000E+02
 
 1     167       0       2
 0.625000000E+01 0.100000000E+02 0.100000000E+02
 
 1     168       0       2
 0.500000000E+01 0.100000000E+02 0.100000000E+02
 
 1     169       0       2
 0.375000000E+01 0.100000000E+02 0.100000000E+02
 
 1     170       0       2
 0.250000000E+01 0.100000000E+02 0.100000000E+02
 
 1     171       0       2
 0.125000000E+01 0.100000000E+02 0.100000000E+02
 
 1     172       0       2
 0.000000000E+00 0.000000000E+00 0.100000000E+02
 
 1     173       0       2
 0.000000000E+00 0.875000000E+01 0.100000000E+02
 
 1     174       0       2
 0.000000000E+00 0.750000000E+01 0.100000000E+02
 
 1     175       0       2
 0.000000000E+00 0.625000000E+01 0.100000000E+02
 
 1     176       0       2
 0.000000000E+00 0.500000000E+01 0.100000000E+02
 
 1     177       0       2
 0.000000000E+00 0.375000000E+01 0.100000000E+02
 
 1     178       0       2
 0.000000000E+00 0.250000000E+01 0.100000000E+02
 
 1     179       0       2
 0.000000000E+00 0.125000000E+01 0.100000000E+02
 
 1     180       0       2
 0.100000000E+02 0.000000000E+00 0.100000000E+02
 
 1     181       0       2
 0.125000000E+01 0.000000000E+00 0.100000000E+02
 
 1     182       0       2
 0.250000000E+01 0.000000000E+00 0.100000000E+02
 
 1     183       0       2
 0.375000000E+01 0.000000000E+00 0.100000000E+02
 
 1     184       0       2
 0.500000000E+01 0.000000000E+00 0.100000000E+02
 
 1     185       0       2
 0.625000000E+01 0.000000000E+00 0.100000000E+02
 
 1     186       0       2
 0.750000000E+01 0.000000000E+00 0.100000000E+02
 
 1     187       0       2
 0.875000000E+01 0.000000000E+00 0.100000000E+02
 
 1     188       0       2
 0.100000000E+02 0.125000000E+01 0.100000000E+02
 
 1     189       0       2
 0.100000000E+02 0.250000000E+01 0.100000000E+02
 
 1     190       0       2
 0.100000000E+02 0.375000000E+01 0.100000000E+02
 
 1     191       0       2
 0.100000000E+02 0.500000000E+01 0.100000000E+02
 
 1     192       0       2
 0.100000000E+02 0.625000000E+01 0.100000000E+02
 
 1     193       0       2
 0.100000000E+02 0.750000000E+01 0.100000000E+02
 
 1     194       0       2
 0.100000000E+02 0.875000000E+01 0.100000000E+02
 
 1     195       0       2
 0.500000000E+01 0.500000000E+01 0.100000000E+02
 
 1     196       0       2
 0.500000000E+01 0.625000000E+01 0.100000000E+02
 
 1     197       0       2
 0.625000000E+01 0.500000000E+01 0.100000000E+02
 
 1     198       0       2
 0.500000000E+01 0.375000000E+01 0.100000000E+02
 
 1     199       0       2
 0.375000000E+01 0.375000000E+01 0.100000000E+02
 
 1     200       0       2
 0.375000000E+01 0.625000000E+01 0.100000000E+02
 
 1     201       0       2
 0.625000000E+01 0.625000000E+01 0.100000000E+02
 
 1     202       0       2
 0.625000000E+01 0.375000000E+01 0.100000000E+02
 
 1     203       0       2
 0.250000000E+01 0.375000000E+01 0.100000000E+02
 
 1     204       0       2
 0.375000000E+01 0.750000000E+01 0.100000000E+02
 
 1     205       0       2
 0.250000000E+01 0.625000000E+01 0.100000000E+02
 
 1     206       0       2
 0.500000000E+01 0.750000000E+01 0.100000000E+02
 
 1     207       0       2
 0.625000000E+01 0.750000000E+01 0.100000000E+02
 
 1     208       0       2
 0.750000000E+01 0.500000000E+01 0.100000000E+02
 
 1     209       0       2
 0.750000000E+01 0.375000000E+01 0.100000000E+02
 
 1     210       0       2
 0.250000000E+01 0.250000000E+01 0.100000000E+02
 
 1     211       0       2
 0.250000000E+01 0.750000000E+01 0.100000000E+02
 
 1     212       0       2
 0.125000000E+01 0.250000000E+01 0.100000000E+02
 
 1     213       0       2
 0.125000000E+01 0.375000000E+01 0.100000000E+02
 
 1     214       0       2
 0.125000000E+01 0.500000000E+01 0.100000000E+02
 
 1     215       0       2
 0.125000000E+01 0.625000000E+01 0.100000000E+02
 
 1     216       0       2
 0.125000000E+01 0.750000000E+01 0.100000000E+02
 
 1     217       0       2
 0.125000000E+01 0.875000000E+01 0.100000000E+02
 
 1     218       0       2
 0.250000000E+01 0.875000000E+01 0.100000000E+02
 
 1     219       0       2
 0.375000000E+01 0.875000000E+01 0.100000000E+02
 
 1     220       0       2
 0.500000000E+01 0.875000000E+01 0.100000000E+02
 
 1     221       0       2
 0.625000000E+01 0.875000000E+01 0.100000000E+02
 
 1     222       0       2
 0.750000000E+01 0.875000000E+01 0.100000000E+02
 
 1     223       0       2
 0.875000000E+01 0.875000000E+01 0.100000000E+02
 
 1     224       0       2
 0.875000000E+01 0.750000000E+01 0.100000000E+02
 
 1     225       0       2
 0.875000000E+01 0.625000000E+01 0.100000000E+02
 
 1     226       0       2
 0.875000000E+01 0.500000000E+01 0.100000000E+02
 
 1     227       0       2
 0.875000000E+01 0.375000000E+01 0.100000000E+02
 
 1     228       0       2
 0.875000000E+01 0.250000000E+01 0.100000000E+02
 
 1     229       0       2
 0.875000000E+01 0.125000000E+01 0.100000000E+02
 
 1     230       0       2
 0.750000000E+01 0.125000000E+01 0.100000000E+02
 
 1     231       0       2
 0.625000000E+01 0.125000000E+01 0.100000000E+02
 
 1     232       0       2
 0.500000000E+01 0.125000000E+01 0.100000000E+02
 
 1     233       0       2
 0.375000000E+01 0.125000000E+01 0.100000000E+02
 
 1     234       0       2
 0.250000000E+01 0.125000000E+01 0.100000000E+02
 
 1     235       0       2
 0.125000000E+01 0.125000000E+01 0.100000000E+02
 
 1     236       0       2
 0.500000000E+01 0.250000000E+01 0.100000000E+02
 
 1     237       0       2
 0.375000000E+01 0.500000000E+01 0.100000000E+02
 
 1     238       0       2
 0.750000000E+01 0.250000000E+01 0.100000000E+02
 
 1     239       0       2
 0.750000000E+01 0.750000000E+01 0.100000000E+02
 
 1     240       0       2
 0.250000000E+01 0.500000000E+01 0.100000000E+02
 
 1     241       0       2
 0.750000000E+01 0.625000000E+01 0.100000000E+02
 
 1     242       0       2
 0.375000000E+01 0.250000000E+01 0.100000000E+02
 
 1     243       0       2
 0.625000000E+01 0.250000000E+01 0.100000000E+02
 
 1     244       0       2
 0.100000000E+02 0.100000000E+02 0.000000000E+00
 
 1     245       0       2
 0.000000000E+00 0.100000000E+02 0.000000000E+00
 
 1     246       0       2
 0.875000000E+01 0.100000000E+02 0.000000000E+00
 
 1     247       0       2
 0.750000000E+01 0.100000000E+02 0.000000000E+00
 
 1     248       0       2
 0.625000000E+01 0.100000000E+02 0.000000000E+00
 
 1     249       0       2
 0.500000000E+01 0.100000000E+02 0.000000000E+00
 
 1     250       0       2
 0.375000000E+01 0.100000000E+02 0.000000000E+00
 
 1     251       0       2
 0.250000000E+01 0.100000000E+02 0.000000000E+00
 
 1     252       0       2
 0.125000000E+01 0.100000000E+02 0.000000000E+00
 
 1     253       0       2
 0.100000000E+02 0.000000000E+00 0.000000000E+00
 
 1     254       0       2
 0.100000000E+02 0.125000000E+01 0.000000000E+00
 
 1     255       0       2
 0.100000000E+02 0.250000000E+01 0.000000000E+00
 
 1     256       0       2
 0.100000000E+02 0.375000000E+01 0.000000000E+00
 
 1     257       0       2
 0.100000000E+02 0.500000000E+01 0.000000000E+00
 
 1     258       0       2
 0.100000000E+02 0.625000000E+01 0.000000000E+00
 
 1     259       0       2
 0.100000000E+02 0.750000000E+01 0.000000000E+00
 
 1     260       0       2
 0.100000000E+02 0.875000000E+01 0.000000000E+00
 
 1     261       0       2
 0.000000000E+00 0.000000000E+00 0.000000000E+00
 
 1     262       0       2
 0.125000000E+01 0.000000000E+00 0.000000000E+00
 
 1     263       0       2
 0.250000000E+01 0.000000000E+00 0.000000000E+00
 
 1     264       0       2
 0.375000000E+01 0.000000000E+00 0.000000000E+00
 
 1     265       0       2
 0.500000000E+01 0.000000000E+00 0.000000000E+00
 
 1     266       0       2
 0.625000000E+01 0.000000000E+00 0.000000000E+00
 
 1     267       0       2
 0.750000000E+01 0.000000000E+00 0.000000000E+00
 
 1     268       0       2
 0.875000000E+01 0.000000000E+00 0.000000000E+00
 
 1     269       0       2
 0.000000000E+00 0.875000000E+01 0.000000000E+00
 
 1     270       0       2
 0.000000000E+00 0.750000000E+01 0.000000000E+00
 
 1     271       0       2
 0.000000000E+00 0.625000000E+01 0.000000000E+00
 
 1     272       0       2
 0.000000000E+00 0.500000000E+01 0.000000000E+00
 
 1     273       0       2
 0.000000000E+00 0.375000000E+01 0.000000000E+00
 
 1     274       0       2
 0.000000000E+00 0.250000000E+01 0.000000000E+00
 
 1     275       0       2
 0.000000000E+00 0.125000000E+01 0.000000000E+00
 
 1     276       0       2
 0.625000000E+01 0.500000000E+01 0.000000000E+00
 
 1     277       0       2
 0.500000000E+01 0.625000000E+01 0.000000000E+00
 
 1     278       0       2
 0.500000000E+01 0.375000000E+01 0.000000000E+00
 
 1     279       0       2
 0.625000000E+01 0.375000000E+01 0.000000000E+00
 
 1     280       0       2
 0.625000000E+01 0.625000000E+01 0.000000000E+00
 
 1     281       0       2
 0.375000000E+01 0.625000000E+01 0.000000000E+00
 
 1     282       0       2
 0.375000000E+01 0.375000000E+01 0.000000000E+00
 
 1     283       0       2
 0.750000000E+01 0.375000000E+01 0.000000000E+00
 
 1     284       0       2
 0.625000000E+01 0.750000000E+01 0.000000000E+00
 
 1     285       0       2
 0.750000000E+01 0.500000000E+01 0.000000000E+00
 
 1     286       0       2
 0.250000000E+01 0.625000000E+01 0.000000000E+00
 
 1     287       0       2
 0.500000000E+01 0.750000000E+01 0.000000000E+00
 
 1     288       0       2
 0.375000000E+01 0.750000000E+01 0.000000000E+00
 
 1     289       0       2
 0.250000000E+01 0.375000000E+01 0.000000000E+00
 
 1     290       0       2
 0.250000000E+01 0.750000000E+01 0.000000000E+00
 
 1     291       0       2
 0.250000000E+01 0.250000000E+01 0.000000000E+00
 
 1     292       0       2
 0.875000000E+01 0.250000000E+01 0.000000000E+00
 
 1     293       0       2
 0.875000000E+01 0.375000000E+01 0.000000000E+00
 
 1     294       0       2
 0.875000000E+01 0.500000000E+01 0.000000000E+00
 
 1     295       0       2
 0.875000000E+01 0.625000000E+01 0.000000000E+00
 
 1     296       0       2
 0.875000000E+01 0.750000000E+01 0.000000000E+00
 
 1     297       0       2
 0.875000000E+01 0.875000000E+01 0.000000000E+00
 
 1     298       0       2
 0.750000000E+01 0.875000000E+01 0.000000000E+00
 
 1     299       0       2
 0.625000000E+01 0.875000000E+01 0.000000000E+00
 
 1     300       0       2
 0.500000000E+01 0.875000000E+01 0.000000000E+00
 
 1     301       0       2
 0.375000000E+01 0.875000000E+01 0.000000000E+00
 
 1     302       0       2
 0.250000000E+01 0.875000000E+01 0.000000000E+00
 
 1     303       0       2
 0.125000000E+01 0.875000000E+01 0.000000000E+00
 
 1     304       0       2
 0.125000000E+01 0.750000000E+01 0.000000000E+00
 
 1     305       0       2
 0.125000000E+01 0.625000000E+01 0.000000000E+00
 
 1     306       0       2
 0.125000000E+01 0.500000000E+01 0.000000000E+00
 
 1     307       0       2
 0.125000000E+01 0.375000000E+01 0.000000000E+00
 
 1     308       0       2
 0.125000000E+01 0.250000000E+01 0.000000000E+00
 
 1     309       0       2
 0.125000000E+01 0.125000000E+01 0.000000000E+00
 
 1     310       0       2
 0.250000000E+01 0.125000000E+01 0.000000000E+00
 
 1     311       0       2
 0.375000000E+01 0.125000000E+01 0.000000000E+00
 
 1     312       0       2
 0.500000000E+01 0.125000000E+01 0.000000000E+00
 
 1     313       0       2
 0.625000000E+01 0.125000000E+01 0.000000000E+00
 
 1     314       0       2
 0.750000000E+01 0.125000000E+01 0.000000000E+00
 
 1     315       0       2
 0.875000000E+01 0.125000000E+01 0.000000000E+00
 
 1     316       0       2
 0.500000000E+01 0.250000000E+01 0.000000000E+00
 
 1     317       0       2
 0.375000000E+01 0.500000000E+01 0.000000000E+00
 
 1     318       0       2
 0.750000000E+01 0.750000000E+01 0.000000000E+00
 
 1     319       0       2
 0.750000000E+01 0.250000000E+01 0.000000000E+00
 
 1     320       0       2
 0.250000000E+01 0.500000000E+01 0.000000000E+00
 
 1     321       0       2
 0.625000000E+01 0.250000000E+01 0.000000000E+00
 
 1     322       0       2
 0.750000000E+01 0.625000000E+01 0.000000000E+00
 
 1     323       0       2
 0.375000000E+01 0.250000000E+01 0.000000000E+00
 
 1     324       0       2
 0.500000000E+01 0.500000000E+01 0.000000000E+00
 
 1     325       0       2
 0.100000000E+02 0.000000000E+00 0.000000000E+00
 
 1     326       0       2
 0.100000000E+02 0.000000000E+00 0.100000000E+02
 
 1     327       0       2
 0.100000000E+02 0.000000000E+00 0.125000000E+01
 
 1     328       0       2
 0.100000000E+02 0.000000000E+00 0.250000000E+01
 
 1     329       0       2
 0.100000000E+02 0.000000000E+00 0.375000000E+01
 
 1     330       0       2
 0.100000000E+02 0.000000000E+00 0.500000000E+01
 
 1     331       0       2
 0.100000000E+02 0.000000000E+00 0.625000000E+01
 
 1     332       0       2
 0.100000000E+02 0.000000000E+00 0.750000000E+01
 
 1     333       0       2
 0.100000000E+02 0.000000000E+00 0.875000000E+01
 
 1     334       0       2
 0.000000000E+00 0.000000000E+00 0.100000000E+02
 
 1     335       0       2
 0.125000000E+01 0.000000000E+00 0.100000000E+02
 
 1     336       0       2
 0.250000000E+01 0.000000000E+00 0.100000000E+02
 
 1     337       0       2
 0.375000000E+01 0.000000000E+00 0.100000000E+02
 
 1     338       0       2
 0.500000000E+01 0.000000000E+00 0.100000000E+02
 
 1     339       0       2
 0.625000000E+01 0.000000000E+00 0.100000000E+02
 
 1     340       0       2
 0.750000000E+01 0.000000000E+00 0.100000000E+02
 
 1     341       0       2
 0.875000000E+01 0.000000000E+00 0.100000000E+02
 
 1     342       0       2
 0.000000000E+00 0.000000000E+00 0.000000000E+00
 
 1     343       0       2
 0.000000000E+00 0.000000000E+00 0.125000000E+01
 
 1     344       0       2
 0.000000000E+00 0.000000000E+00 0.250000000E+01
 
 1     345       0       2
 0.000000000E+00 0.000000000E+00 0.375000000E+01
 
 1     346       0       2
 0.000000000E+00 0.000000000E+00 0.500000000E+01
 
 1     347       0       2
 0.000000000E+00 0.000000000E+00 0.625000000E+01
 
 1     348       0       2
 0.000000000E+00 0.000000000E+00 0.750000000E+01
 
 1     349       0       2
 0.000000000E+00 0.000000000E+00 0.875000000E+01
 
 1     350       0       2
 0.125000000E+01 0.000000000E+00 0.000000000E+00
 
 1     351       0       2
 0.250000000E+01 0.000000000E+00 0.000000000E+00
 
 1     352       0       2
 0.375000000E+01 0.000000000E+00 0.000000000E+00
 
 1     353       0       2
 0.500000000E+01 0.000000000E+00 0.000000000E+00
 
 1     354       0       2
 0.625000000E+01 0.000000000E+00 0.000000000E+00
 
 1     355       0       2
 0.750000000E+01 0.000000000E+00 0.000000000E+00
 
 1     356       0       2
 0.875000000E+01 0.000000000E+00 0.000000000E+00
 
 1     357       0       2
 0.625000000E+01 0.000000000E+00 0.500000000E+01
 
 1     358       0       2
 0.500000000E+01 0.000000000E+00 0.375000000E+01
 
 1     359       0       2
 0.500000000E+01 0.000000000E+00 0.625000000E+01
 
 1     360       0       2
 0.625000000E+01 0.000000000E+00 0.625000000E+01
 
 1     361       0       2
 0.625000000E+01 0.000000000E+00 0.375000000E+01
 
 1     362       0       2
 0.375000000E+01 0.000000000E+00 0.375000000E+01
 
 1     363       0       2
 0.375000000E+01 0.000000000E+00 0.625000000E+01
 
 1     364       0       2
 0.750000000E+01 0.000000000E+00 0.500000000E+01
 
 1     365       0       2
 0.750000000E+01 0.000000000E+00 0.375000000E+01
 
 1     366       0       2
 0.250000000E+01 0.000000000E+00 0.375000000E+01
 
 1     367       0       2
 0.375000000E+01 0.000000000E+00 0.250000000E+01
 
 1     368       0       2
 0.375000000E+01 0.000000000E+00 0.750000000E+01
 
 1     369       0       2
 0.250000000E+01 0.000000000E+00 0.625000000E+01
 
 1     370       0       2
 0.500000000E+01 0.000000000E+00 0.750000000E+01
 
 1     371       0       2
 0.625000000E+01 0.000000000E+00 0.750000000E+01
 
 1     372       0       2
 0.250000000E+01 0.000000000E+00 0.250000000E+01
 
 1     373       0       2
 0.250000000E+01 0.000000000E+00 0.750000000E+01
 
 1     374       0       2
 0.875000000E+01 0.000000000E+00 0.750000000E+01
 
 1     375       0       2
 0.875000000E+01 0.000000000E+00 0.625000000E+01
 
 1     376       0       2
 0.875000000E+01 0.000000000E+00 0.500000000E+01
 
 1     377       0       2
 0.875000000E+01 0.000000000E+00 0.375000000E+01
 
 1     378       0       2
 0.875000000E+01 0.000000000E+00 0.250000000E+01
 
 1     379       0       2
 0.875000000E+01 0.000000000E+00 0.125000000E+01
 
 1     380       0       2
 0.750000000E+01 0.000000000E+00 0.125000000E+01
 
 1     381       0       2
 0.625000000E+01 0.000000000E+00 0.125000000E+01
 
 1     382       0       2
 0.500000000E+01 0.000000000E+00 0.125000000E+01
 
 1     383       0       2
 0.375000000E+01 0.000000000E+00 0.125000000E+01
 
 1     384       0       2
 0.250000000E+01 0.000000000E+00 0.125000000E+01
 
 1     385       0       2
 0.125000000E+01 0.000000000E+00 0.125000000E+01
 
 1     386       0       2
 0.125000000E+01 0.000000000E+00 0.250000000E+01
 
 1     387       0       2
 0.125000000E+01 0.000000000E+00 0.375000000E+01
 
 1     388       0       2
 0.125000000E+01 0.000000000E+00 0.500000000E+01
 
 1     389       0       2
 0.125000000E+01 0.000000000E+00 0.625000000E+01
 
 1     390       0       2
 0.125000000E+01 0.000000000E+00 0.750000000E+01
 
 1     391       0       2
 0.125000000E+01 0.000000000E+00 0.875000000E+01
 
 1     392       0       2
 0.250000000E+01 0.000000000E+00 0.875000000E+01
 
 1     393       0       2
 0.375000000E+01 0.000000000E+00 0.875000000E+01
 
 1     394       0       2
 0.500000000E+01 0.000000000E+00 0.875000000E+01
 
 1     395       0       2
 0.625000000E+01 0.000000000E+00 0.875000000E+01
 
 1     396       0       2
 0.750000000E+01 0.000000000E+00 0.875000000E+01
 
 1     397       0       2
 0.875000000E+01 0.000000000E+00 0.875000000E+01
 
 1     398       0       2
 0.500000000E+01 0.000000000E+00 0.250000000E+01
 
 1     399       0       2
 0.375000000E+01 0.000000000E+00 0.500000000E+01
 
 1     400       0       2
 0.750000000E+01 0.000000000E+00 0.750000000E+01
 
 1     401       0       2
 0.750000000E+01 0.000000000E+00 0.250000000E+01
 
 1     402       0       2
 0.250000000E+01 0.000000000E+00 0.500000000E+01
 
 1     403       0       2
 0.625000000E+01 0.000000000E+00 0.250000000E+01
 
 1     404       0       2
 0.750000000E+01 0.000000000E+00 0.625000000E+01
 
 1     405       0       2
 0.500000000E+01 0.000000000E+00 0.500000000E+01
 
 1     406       0       2
 0.000000000E+00 0.000000000E+00 0.000000000E+00
 
 1     407       0       2
 0.000000000E+00 0.000000000E+00 0.100000000E+02
 
 1     408       0       2
 0.000000000E+00 0.000000000E+00 0.125000000E+01
 
 1     409       0       2
 0.000000000E+00 0.000000000E+00 0.250000000E+01
 
 1     410       0       2
 0.000000000E+00 0.000000000E+00 0.375000000E+01
 
 1     411       0       2
 0.000000000E+00 0.000000000E+00 0.500000000E+01
 
 1     412       0       2
 0.000000000E+00 0.000000000E+00 0.625000000E+01
 
 1     413       0       2
 0.000000000E+00 0.000000000E+00 0.750000000E+01
 
 1     414       0       2
 0.000000000E+00 0.000000000E+00 0.875000000E+01
 
 1     415       0       2
 0.000000000E+00 0.100000000E+02 0.100000000E+02
 
 1     416       0       2
 0.000000000E+00 0.875000000E+01 0.100000000E+02
 
 1     417       0       2
 0.000000000E+00 0.750000000E+01 0.100000000E+02
 
 1     418       0       2
 0.000000000E+00 0.625000000E+01 0.100000000E+02
 
 1     419       0       2
 0.000000000E+00 0.500000000E+01 0.100000000E+02
 
 1     420       0       2
 0.000000000E+00 0.375000000E+01 0.100000000E+02
 
 1     421       0       2
 0.000000000E+00 0.250000000E+01 0.100000000E+02
 
 1     422       0       2
 0.000000000E+00 0.125000000E+01 0.100000000E+02
 
 1     423       0       2
 0.000000000E+00 0.100000000E+02 0.000000000E+00
 
 1     424       0       2
 0.000000000E+00 0.100000000E+02 0.125000000E+01
 
 1     425       0       2
 0.000000000E+00 0.100000000E+02 0.250000000E+01
 
 1     426       0       2
 0.000000000E+00 0.100000000E+02 0.375000000E+01
 
 1     427       0       2
 0.000000000E+00 0.100000000E+02 0.500000000E+01
 
 1     428       0       2
 0.000000000E+00 0.100000000E+02 0.625000000E+01
 
 1     429       0       2
 0.000000000E+00 0.100000000E+02 0.750000000E+01
 
 1     430       0       2
 0.000000000E+00 0.100000000E+02 0.875000000E+01
 
 1     431       0       2
 0.000000000E+00 0.875000000E+01 0.000000000E+00
 
 1     432       0       2
 0.000000000E+00 0.750000000E+01 0.000000000E+00
 
 1     433       0       2
 0.000000000E+00 0.625000000E+01 0.000000000E+00
 
 1     434       0       2
 0.000000000E+00 0.500000000E+01 0.000000000E+00
 
 1     435       0       2
 0.000000000E+00 0.375000000E+01 0.000000000E+00
 
 1     436       0       2
 0.000000000E+00 0.250000000E+01 0.000000000E+00
 
 1     437       0       2
 0.000000000E+00 0.125000000E+01 0.000000000E+00
 
 1     438       0       2
 0.000000000E+00 0.500245142E+01 0.374999690E+01
 
 1     439       0       2
 0.000000000E+00 0.625000000E+01 0.500000000E+01
 
 1     440       0       2
 0.000000000E+00 0.500000000E+01 0.625000000E+01
 
 1     441       0       2
 0.000000000E+00 0.375000000E+01 0.625000000E+01
 
 1     442       0       2
 0.000000000E+00 0.375000000E+01 0.375000000E+01
 
 1     443       0       2
 0.000000000E+00 0.625980520E+01 0.375301576E+01
 
 1     444       0       2
 0.000000000E+00 0.625000000E+01 0.625000000E+01
 
 1     445       0       2
 0.000000000E+00 0.250000000E+01 0.625000000E+01
 
 1     446       0       2
 0.000000000E+00 0.375000000E+01 0.250000000E+01
 
 1     447       0       2
 0.000000000E+00 0.250000000E+01 0.375000000E+01
 
 1     448       0       2
 0.000000000E+00 0.751375866E+01 0.375679922E+01
 
 1     449       0       2
 0.000000000E+00 0.500000000E+01 0.250000000E+01
 
 1     450       0       2
 0.000000000E+00 0.625000000E+01 0.250000000E+01
 
 1     451       0       2
 0.000000000E+00 0.750603580E+01 0.500203657E+01
 
 1     452       0       2
 0.000000000E+00 0.750000000E+01 0.625000000E+01
 
 1     453       0       2
 0.000000000E+00 0.250000000E+01 0.750000000E+01
 
 1     454       0       2
 0.000000000E+00 0.250000000E+01 0.250000000E+01
 
 1     455       0       2
 0.000000000E+00 0.750000000E+01 0.250000000E+01
 
 1     456       0       2
 0.000000000E+00 0.750000000E+01 0.750000000E+01
 
 1     457       0       2
 0.000000000E+00 0.125000000E+01 0.750000000E+01
 
 1     458       0       2
 0.000000000E+00 0.125000000E+01 0.625000000E+01
 
 1     459       0       2
 0.000000000E+00 0.125000000E+01 0.500000000E+01
 
 1     460       0       2
 0.000000000E+00 0.125000000E+01 0.375000000E+01
 
 1     461       0       2
 0.000000000E+00 0.125000000E+01 0.250000000E+01
 
 1     462       0       2
 0.000000000E+00 0.125000000E+01 0.125000000E+01
 
 1     463       0       2
 0.000000000E+00 0.250000000E+01 0.125000000E+01
 
 1     464       0       2
 0.000000000E+00 0.375000000E+01 0.125000000E+01
 
 1     465       0       2
 0.000000000E+00 0.500000000E+01 0.125000000E+01
 
 1     466       0       2
 0.000000000E+00 0.625000000E+01 0.125000000E+01
 
 1     467       0       2
 0.000000000E+00 0.750000000E+01 0.125000000E+01
 
 1     468       0       2
 0.000000000E+00 0.875000000E+01 0.125000000E+01
 
 1     469       0       2
 0.000000000E+00 0.875000000E+01 0.250000000E+01
 
 1     470       0       2
 0.000000000E+00 0.876558685E+01 0.375259447E+01
 
 1     471       0       2
 0.000000000E+00 0.876130295E+01 0.501096010E+01
 
 1     472       0       2
 0.000000000E+00 0.875000000E+01 0.625000000E+01
 
 1     473       0       2
 0.000000000E+00 0.875000000E+01 0.750000000E+01
 
 1     474       0       2
 0.000000000E+00 0.875000000E+01 0.875000000E+01
 
 1     475       0       2
 0.000000000E+00 0.750000000E+01 0.875000000E+01
 
 1     476       0       2
 0.000000000E+00 0.625000000E+01 0.875000000E+01
 
 1     477       0       2
 0.000000000E+00 0.500000000E+01 0.875000000E+01
 
 1     478       0       2
 0.000000000E+00 0.375000000E+01 0.875000000E+01
 
 1     479       0       2
 0.000000000E+00 0.250000000E+01 0.875000000E+01
 
 1     480       0       2
 0.000000000E+00 0.125000000E+01 0.875000000E+01
 
 1     481       0       2
 0.000000000E+00 0.500000000E+01 0.750000000E+01
 
 1     482       0       2
 0.000000000E+00 0.375000000E+01 0.500000000E+01
 
 1     483       0       2
 0.000000000E+00 0.250000000E+01 0.500000000E+01
 
 1     484       0       2
 0.000000000E+00 0.375000000E+01 0.750000000E+01
 
 1     485       0       2
 0.000000000E+00 0.625000000E+01 0.750000000E+01
 
 1     486       0       2
 0.000000000E+00 0.500000000E+01 0.500000000E+01
 
 2       1       4       2       0
       4       0       1
      35      38      34      33
 2       2       4       2       0
       4       0       1
      33      75      39      35
 2       3       4       2       0
       4       0       1
      34      37      36      33
 2       4       4       2       0
       4       0       1
      36      40      75      33
 2       5       4       2       0
       4       0       1
      34      41      79      37
 2       6       4       2       0
       4       0       1
      38      42      41      34
 2       7       4       2       0
       4       0       1
      35      74      81      38
 2       8       4       2       0
       4       0       1
      39      80      74      35
 2       9       4       2       0
       4       0       1
      75      78      43      39
 2      10       4       2       0
       4       0       1
      40      45      78      75
 2      11       4       2       0
       4       0       1
      37      47      46      36
 2      12       4       2       0
       4       0       1
      46      44      40      36
 2      13       4       2       0
       4       0       1
      79      77      47      37
 2      14       4       2       0
       4       0       1
      81      76      42      38
 2      15       4       2       0
       4       0       1
      43      48      80      39
 2      16       4       2       0
       4       0       1
      44      49      45      40
 2      17       4       2       0
       4       0       1
      41      52      51      79
 2      18       4       2       0
       4       0       1
      79      51      50      77
 2      19       4       2       0
       4       0       1
      74      58      57      81
 2      20       4       2       0
       4       0       1
      81      57      56      76
 2      21       4       2       0
       4       0       1
      76      54      53      42
 2      22       4       2       0
       4       0       1
      42      53      52      41
 2      23       4       2       0
       4       0       1
      78      64      63      43
 2      24       4       2       0
       4       0       1
      43      63      62      48
 2      25       4       2       0
       4       0       1
      48      60      59      80
 2      26       4       2       0
       4       0       1
      80      59      58      74
 2      27       4       2       0
       4       0       1
      46      70      69      44
 2      28       4       2       0
       4       0       1
      44      69      68      49
 2      29       4       2       0
       4       0       1
      49      66      65      45
 2      30       4       2       0
       4       0       1
      45      65      64      78
 2      31       4       2       0
       4       0       1
      77      72      71      47
 2      32       4       2       0
       4       0       1
      47      71      70      46
 2      33       4       2       0
       4       0       1
      50      73      72      77
 2      34       4       2       0
       4       0       1
      56      55      54      76
 2      35       4       2       0
       4       0       1
      62      61      60      48
 2      36       4       2       0
       4       0       1
      68      67      66      49
 2      37       4       2       0
       4       0       1
      50      31      32      73
 2      38       4       2       0
       4       0       1
      51      30      31      50
 2      39       4       2       0
       4       0       1
      52      29      30      51
 2      40       4       2       0
       4       0       1
      53      28      29      52
 2      41       4       2       0
       4       0       1
      54      27      28      53
 2      42       4       2       0
       4       0       1
      55      26      27      54
 2      43       4       2       0
       4       0       1
      55      25      18      26
 2      44       4       2       0
       4       0       1
      56      24      25      55
 2      45       4       2       0
       4       0       1
      57      23      24      56
 2      46       4       2       0
       4       0       1
      58      22      23      57
 2      47       4       2       0
       4       0       1
      59      21      22      58
 2      48       4       2       0
       4       0       1
      60      20      21      59
 2      49       4       2       0
       4       0       1
      61      19      20      60
 2      50       4       2       0
       4       0       1
      61      11      10      19
 2      51       4       2       0
       4       0       1
      62      12      11      61
 2      52       4       2       0
       4       0       1
      63      13      12      62
 2      53       4       2       0
       4       0       1
      64      14      13      63
 2      54       4       2       0
       4       0       1
      65      15      14      64
 2      55       4       2       0
       4       0       1
      66      16      15      65
 2      56       4       2       0
       4       0       1
      67      17      16      66
 2      57       4       2       0
       4       0       1
      67       3       1      17
 2      58       4       2       0
       4       0       1
      68       4       3      67
 2      59       4       2       0
       4       0       1
      69       5       4      68
 2      60       4       2       0
       4       0       1
      70       6       5      69
 2      61       4       2       0
       4       0       1
      71       7       6      70
 2      62       4       2       0
       4       0       1
      72       8       7      71
 2      63       4       2       0
       4       0       1
      73       9       8      72
 2      64       4       2       0
       4       0       1
      32       2       9      73
 2      65       4       2       0
       4       0       1
     114     118     158     162
 2      66       4       2       0
       4       0       1
     162     115     119     114
 2      67       4       2       0
       4       0       1
     158     117     116     162
 2      68       4       2       0
       4       0       1
     116     120     115     162
 2      69       4       2       0
       4       0       1
     158     159     121     117
 2      70       4       2       0
       4       0       1
     118     123     159     158
 2      71       4       2       0
       4       0       1
     114     125     122     118
 2      72       4       2       0
       4       0       1
     119     126     125     114
 2      73       4       2       0
       4       0       1
     115     127     124     119
 2      74       4       2       0
       4       0       1
     120     128     127     115
 2      75       4       2       0
       4       0       1
     117     160     157     116
 2      76       4       2       0
       4       0       1
     157     161     120     116
 2      77       4       2       0
       4       0       1
     121     129     160     117
 2      78       4       2       0
       4       0       1
     122     130     123     118
 2      79       4       2       0
       4       0       1
     124     131     126     119
 2      80       4       2       0
       4       0       1
     161     132     128     120
 2      81       4       2       0
       4       0       1
     159     135     134     121
 2      82       4       2       0
       4       0       1
     121     134     133     129
 2      83       4       2       0
       4       0       1
     125     141     140     122
 2      84       4       2       0
       4       0       1
     122     140     139     130
 2      85       4       2       0
       4       0       1
     130     137     136     123
 2      86       4       2       0
       4       0       1
     123     136     135     159
 2      87       4       2       0
       4       0       1
     127     147     146     124
 2      88       4       2       0
       4       0       1
     124     146     145     131
 2      89       4       2       0
       4       0       1
     131     143     142     126
 2      90       4       2       0
       4       0       1
     126     142     141     125
 2      91       4       2       0
       4       0       1
     157     153     152     161
 2      92       4       2       0
       4       0       1
     161     152     151     132
 2      93       4       2       0
       4       0       1
     132     149     148     128
 2      94       4       2       0
       4       0       1
     128     148     147     127
 2      95       4       2       0
       4       0       1
     129     155     154     160
 2      96       4       2       0
       4       0       1
     160     154     153     157
 2      97       4       2       0
       4       0       1
     133     156     155     129
 2      98       4       2       0
       4       0       1
     139     138     137     130
 2      99       4       2       0
       4       0       1
     145     144     143     131
 2     100       4       2       0
       4       0       1
     151     150     149     132
 2     101       4       2       0
       4       0       1
     133      89      90     156
 2     102       4       2       0
       4       0       1
     134      88      89     133
 2     103       4       2       0
       4       0       1
     135      87      88     134
 2     104       4       2       0
       4       0       1
     136      86      87     135
 2     105       4       2       0
       4       0       1
     137      85      86     136
 2     106       4       2       0
       4       0       1
     138      84      85     137
 2     107       4       2       0
       4       0       1
     138     113      82      84
 2     108       4       2       0
       4       0       1
     139     112     113     138
 2     109       4       2       0
       4       0       1
     140     111     112     139
 2     110       4       2       0
       4       0       1
     141     110     111     140
 2     111       4       2       0
       4       0       1
     142     109     110     141
 2     112       4       2       0
       4       0       1
     143     108     109     142
 2     113       4       2       0
       4       0       1
     144     107     108     143
 2     114       4       2       0
       4       0       1
     144     100      99     107
 2     115       4       2       0
       4       0       1
     145     101     100     144
 2     116       4       2       0
       4       0       1
     146     102     101     145
 2     117       4       2       0
       4       0       1
     147     103     102     146
 2     118       4       2       0
       4       0       1
     148     104     103     147
 2     119       4       2       0
       4       0       1
     149     105     104     148
 2     120       4       2       0
       4       0       1
     150     106     105     149
 2     121       4       2       0
       4       0       1
     150      92      91     106
 2     122       4       2       0
       4       0       1
     151      93      92     150
 2     123       4       2       0
       4       0       1
     152      94      93     151
 2     124       4       2       0
       4       0       1
     153      95      94     152
 2     125       4       2       0
       4       0       1
     154      96      95     153
 2     126       4       2       0
       4       0       1
     155      97      96     154
 2     127       4       2       0
       4       0       1
     156      98      97     155
 2     128       4       2       0
       4       0       1
      90      83      98     156
 2     129       4       2       0
       4       0       1
     196     200     237     195
 2     130       4       2       0
       4       0       1
     195     197     201     196
 2     131       4       2       0
       4       0       1
     237     199     198     195
 2     132       4       2       0
       4       0       1
     198     202     197     195
 2     133       4       2       0
       4       0       1
     237     240     203     199
 2     134       4       2       0
       4       0       1
     200     205     240     237
 2     135       4       2       0
       4       0       1
     196     206     204     200
 2     136       4       2       0
       4       0       1
     201     207     206     196
 2     137       4       2       0
       4       0       1
     197     208     241     201
 2     138       4       2       0
       4       0       1
     202     209     208     197
 2     139       4       2       0
       4       0       1
     199     242     236     198
 2     140       4       2       0
       4       0       1
     236     243     202     198
 2     141       4       2       0
       4       0       1
     203     210     242     199
 2     142       4       2       0
       4       0       1
     204     211     205     200
 2     143       4       2       0
       4       0       1
     241     239     207     201
 2     144       4       2       0
       4       0       1
     243     238     209     202
 2     145       4       2       0
       4       0       1
     240     214     213     203
 2     146       4       2       0
       4       0       1
     203     213     212     210
 2     147       4       2       0
       4       0       1
     206     220     219     204
 2     148       4       2       0
       4       0       1
     204     219     218     211
 2     149       4       2       0
       4       0       1
     211     216     215     205
 2     150       4       2       0
       4       0       1
     205     215     214     240
 2     151       4       2       0
       4       0       1
     208     226     225     241
 2     152       4       2       0
       4       0       1
     241     225     224     239
 2     153       4       2       0
       4       0       1
     239     222     221     207
 2     154       4       2       0
       4       0       1
     207     221     220     206
 2     155       4       2       0
       4       0       1
     236     232     231     243
 2     156       4       2       0
       4       0       1
     243     231     230     238
 2     157       4       2       0
       4       0       1
     238     228     227     209
 2     158       4       2       0
       4       0       1
     209     227     226     208
 2     159       4       2       0
       4       0       1
     210     234     233     242
 2     160       4       2       0
       4       0       1
     242     233     232     236
 2     161       4       2       0
       4       0       1
     212     235     234     210
 2     162       4       2       0
       4       0       1
     218     217     216     211
 2     163       4       2       0
       4       0       1
     224     223     222     239
 2     164       4       2       0
       4       0       1
     230     229     228     238
 2     165       4       2       0
       4       0       1
     212     178     179     235
 2     166       4       2       0
       4       0       1
     213     177     178     212
 2     167       4       2       0
       4       0       1
     214     176     177     213
 2     168       4       2       0
       4       0       1
     215     175     176     214
 2     169       4       2       0
       4       0       1
     216     174     175     215
 2     170       4       2       0
       4       0       1
     217     173     174     216
 2     171       4       2       0
       4       0       1
     217     171     164     173
 2     172       4       2       0
       4       0       1
     218     170     171     217
 2     173       4       2       0
       4       0       1
     219     169     170     218
 2     174       4       2       0
       4       0       1
     220     168     169     219
 2     175       4       2       0
       4       0       1
     221     167     168     220
 2     176       4       2       0
       4       0       1
     222     166     167     221
 2     177       4       2       0
       4       0       1
     223     165     166     222
 2     178       4       2       0
       4       0       1
     223     194     163     165
 2     179       4       2       0
       4       0       1
     224     193     194     223
 2     180       4       2       0
       4       0       1
     225     192     193     224
 2     181       4       2       0
       4       0       1
     226     191     192     225
 2     182       4       2       0
       4       0       1
     227     190     191     226
 2     183       4       2       0
       4       0       1
     228     189     190     227
 2     184       4       2       0
       4       0       1
     229     188     189     228
 2     185       4       2       0
       4       0       1
     229     187     180     188
 2     186       4       2       0
       4       0       1
     230     186     187     229
 2     187       4       2       0
       4       0       1
     231     185     186     230
 2     188       4       2       0
       4       0       1
     232     184     185     231
 2     189       4       2       0
       4       0       1
     233     183     184     232
 2     190       4       2       0
       4       0       1
     234     182     183     233
 2     191       4       2       0
       4       0       1
     235     181     182     234
 2     192       4       2       0
       4       0       1
     179     172     181     235
 2     193       4       2       0
       4       0       1
     277     280     276     324
 2     194       4       2       0
       4       0       1
     324     317     281     277
 2     195       4       2       0
       4       0       1
     276     279     278     324
 2     196       4       2       0
       4       0       1
     278     282     317     324
 2     197       4       2       0
       4       0       1
     276     285     283     279
 2     198       4       2       0
       4       0       1
     280     322     285     276
 2     199       4       2       0
       4       0       1
     277     287     284     280
 2     200       4       2       0
       4       0       1
     281     288     287     277
 2     201       4       2       0
       4       0       1
     317     320     286     281
 2     202       4       2       0
       4       0       1
     282     289     320     317
 2     203       4       2       0
       4       0       1
     279     321     316     278
 2     204       4       2       0
       4       0       1
     316     323     282     278
 2     205       4       2       0
       4       0       1
     283     319     321     279
 2     206       4       2       0
       4       0       1
     284     318     322     280
 2     207       4       2       0
       4       0       1
     286     290     288     281
 2     208       4       2       0
       4       0       1
     323     291     289     282
 2     209       4       2       0
       4       0       1
     285     294     293     283
 2     210       4       2       0
       4       0       1
     283     293     292     319
 2     211       4       2       0
       4       0       1
     287     300     299     284
 2     212       4       2       0
       4       0       1
     284     299     298     318
 2     213       4       2       0
       4       0       1
     318     296     295     322
 2     214       4       2       0
       4       0       1
     322     295     294     285
 2     215       4       2       0
       4       0       1
     320     306     305     286
 2     216       4       2       0
       4       0       1
     286     305     304     290
 2     217       4       2       0
       4       0       1
     290     302     301     288
 2     218       4       2       0
       4       0       1
     288     301     300     287
 2     219       4       2       0
       4       0       1
     316     312     311     323
 2     220       4       2       0
       4       0       1
     323     311     310     291
 2     221       4       2       0
       4       0       1
     291     308     307     289
 2     222       4       2       0
       4       0       1
     289     307     306     320
 2     223       4       2       0
       4       0       1
     319     314     313     321
 2     224       4       2       0
       4       0       1
     321     313     312     316
 2     225       4       2       0
       4       0       1
     292     315     314     319
 2     226       4       2       0
       4       0       1
     298     297     296     318
 2     227       4       2       0
       4       0       1
     304     303     302     290
 2     228       4       2       0
       4       0       1
     310     309     308     291
 2     229       4       2       0
       4       0       1
     292     255     254     315
 2     230       4       2       0
       4       0       1
     293     256     255     292
 2     231       4       2       0
       4       0       1
     294     257     256     293
 2     232       4       2       0
       4       0       1
     295     258     257     294
 2     233       4       2       0
       4       0       1
     296     259     258     295
 2     234       4       2       0
       4       0       1
     297     260     259     296
 2     235       4       2       0
       4       0       1
     297     246     244     260
 2     236       4       2       0
       4       0       1
     298     247     246     297
 2     237       4       2       0
       4       0       1
     299     248     247     298
 2     238       4       2       0
       4       0       1
     300     249     248     299
 2     239       4       2       0
       4       0       1
     301     250     249     300
 2     240       4       2       0
       4       0       1
     302     251     250     301
 2     241       4       2       0
       4       0       1
     303     252     251     302
 2     242       4       2       0
       4       0       1
     303     269     245     252
 2     243       4       2       0
       4       0       1
     304     270     269     303
 2     244       4       2       0
       4       0       1
     305     271     270     304
 2     245       4       2       0
       4       0       1
     306     272     271     305
 2     246       4       2       0
       4       0       1
     307     273     272     306
 2     247       4       2       0
       4       0       1
     308     274     273     307
 2     248       4       2       0
       4       0       1
     309     275     274     308
 2     249       4       2       0
       4       0       1
     309     262     261     275
 2     250       4       2       0
       4       0       1
     310     263     262     309
 2     251       4       2       0
       4       0       1
     311     264     263     310
 2     252       4       2       0
       4       0       1
     312     265     264     311
 2     253       4       2       0
       4       0       1
     313     266     265     312
 2     254       4       2       0
       4       0       1
     314     267     266     313
 2     255       4       2       0
       4       0       1
     315     268     267     314
 2     256       4       2       0
       4       0       1
     254     253     268     315
 2     257       4       2       0
       4       0       1
     358     361     357     405
 2     258       4       2       0
       4       0       1
     405     399     362     358
 2     259       4       2       0
       4       0       1
     357     360     359     405
 2     260       4       2       0
       4       0       1
     359     363     399     405
 2     261       4       2       0
       4       0       1
     357     364     404     360
 2     262       4       2       0
       4       0       1
     361     365     364     357
 2     263       4       2       0
       4       0       1
     358     398     403     361
 2     264       4       2       0
       4       0       1
     362     367     398     358
 2     265       4       2       0
       4       0       1
     399     402     366     362
 2     266       4       2       0
       4       0       1
     363     369     402     399
 2     267       4       2       0
       4       0       1
     360     371     370     359
 2     268       4       2       0
       4       0       1
     370     368     363     359
 2     269       4       2       0
       4       0       1
     404     400     371     360
 2     270       4       2       0
       4       0       1
     403     401     365     361
 2     271       4       2       0
       4       0       1
     366     372     367     362
 2     272       4       2       0
       4       0       1
     368     373     369     363
 2     273       4       2       0
       4       0       1
     364     376     375     404
 2     274       4       2       0
       4       0       1
     404     375     374     400
 2     275       4       2       0
       4       0       1
     398     382     381     403
 2     276       4       2       0
       4       0       1
     403     381     380     401
 2     277       4       2       0
       4       0       1
     401     378     377     365
 2     278       4       2       0
       4       0       1
     365     377     376     364
 2     279       4       2       0
       4       0       1
     402     388     387     366
 2     280       4       2       0
       4       0       1
     366     387     386     372
 2     281       4       2       0
       4       0       1
     372     384     383     367
 2     282       4       2       0
       4       0       1
     367     383     382     398
 2     283       4       2       0
       4       0       1
     370     394     393     368
 2     284       4       2       0
       4       0       1
     368     393     392     373
 2     285       4       2       0
       4       0       1
     373     390     389     369
 2     286       4       2       0
       4       0       1
     369     389     388     402
 2     287       4       2       0
       4       0       1
     400     396     395     371
 2     288       4       2       0
       4       0       1
     371     395     394     370
 2     289       4       2       0
       4       0       1
     374     397     396     400
 2     290       4       2       0
       4       0       1
     380     379     378     401
 2     291       4       2       0
       4       0       1
     386     385     384     372
 2     292       4       2       0
       4       0       1
     392     391     390     373
 2     293       4       2       0
       4       0       1
     374     332     333     397
 2     294       4       2       0
       4       0       1
     375     331     332     374
 2     295       4       2       0
       4       0       1
     376     330     331     375
 2     296       4       2       0
       4       0       1
     377     329     330     376
 2     297       4       2       0
       4       0       1
     378     328     329     377
 2     298       4       2       0
       4       0       1
     379     327     328     378
 2     299       4       2       0
       4       0       1
     379     356     325     327
 2     300       4       2       0
       4       0       1
     380     355     356     379
 2     301       4       2       0
       4       0       1
     381     354     355     380
 2     302       4       2       0
       4       0       1
     382     353     354     381
 2     303       4       2       0
       4       0       1
     383     352     353     382
 2     304       4       2       0
       4       0       1
     384     351     352     383
 2     305       4       2       0
       4       0       1
     385     350     351     384
 2     306       4       2       0
       4       0       1
     385     343     342     350
 2     307       4       2       0
       4       0       1
     386     344     343     385
 2     308       4       2       0
       4       0       1
     387     345     344     386
 2     309       4       2       0
       4       0       1
     388     346     345     387
 2     310       4       2       0
       4       0       1
     389     347     346     388
 2     311       4       2       0
       4       0       1
     390     348     347     389
 2     312       4       2       0
       4       0       1
     391     349     348     390
 2     313       4       2       0
       4       0       1
     391     335     334     349
 2     314       4       2       0
       4       0       1
     392     336     335     391
 2     315       4       2       0
       4       0       1
     393     337     336     392
 2     316       4       2       0
       4       0       1
     394     338     337     393
 2     317       4       2       0
       4       0       1
     395     339     338     394
 2     318       4       2       0
       4       0       1
     396     340     339     395
 2     319       4       2       0
       4       0       1
     397     341     340     396
 2     320       4       2       0
       4       0       1
     333     326     341     397
 2     321       4       2       0
       4       0       1
     438     442     482     486
 2     322       4       2       0
       4       0       1
     486     439     443     438
 2     323       4       2       0
       4       0       1
     482     441     440     486
 2     324       4       2       0
       4       0       1
     440     444     439     486
 2     325       4       2       0
       4       0       1
     482     483     445     441
 2     326       4       2       0
       4       0       1
     442     447     483     482
 2     327       4       2       0
       4       0       1
     438     449     446     442
 2     328       4       2       0
       4       0       1
     443     450     449     438
 2     329       4       2       0
       4       0       1
     439     451     448     443
 2     330       4       2       0
       4       0       1
     444     452     451     439
 2     331       4       2       0
       4       0       1
     441     484     481     440
 2     332       4       2       0
       4       0       1
     481     485     444     440
 2     333       4       2       0
       4       0       1
     445     453     484     441
 2     334       4       2       0
       4       0       1
     446     454     447     442
 2     335       4       2       0
       4       0       1
     448     455     450     443
 2     336       4       2       0
       4       0       1
     485     456     452     444
 2     337       4       2       0
       4       0       1
     483     459     458     445
 2     338       4       2       0
       4       0       1
     445     458     457     453
 2     339       4       2       0
       4       0       1
     449     465     464     446
 2     340       4       2       0
       4       0       1
     446     464     463     454
 2     341       4       2       0
       4       0       1
     454     461     460     447
 2     342       4       2       0
       4       0       1
     447     460     459     483
 2     343       4       2       0
       4       0       1
     451     471     470     448
 2     344       4       2       0
       4       0       1
     448     470     469     455
 2     345       4       2       0
       4       0       1
     455     467     466     450
 2     346       4       2       0
       4       0       1
     450     466     465     449
 2     347       4       2       0
       4       0       1
     481     477     476     485
 2     348       4       2       0
       4       0       1
     485     476     475     456
 2     349       4       2       0
       4       0       1
     456     473     472     452
 2     350       4       2       0
       4       0       1
     452     472     471     451
 2     351       4       2       0
       4       0       1
     453     479     478     484
 2     352       4       2       0
       4       0       1
     484     478     477     481
 2     353       4       2       0
       4       0       1
     457     480     479     453
 2     354       4       2       0
       4       0       1
     463     462     461     454
 2     355       4       2       0
       4       0       1
     469     468     467     455
 2     356       4       2       0
       4       0       1
     475     474     473     456
 2     357       4       2       0
       4       0       1
     457     413     414     480
 2     358       4       2       0
       4       0       1
     458     412     413     457
 2     359       4       2       0
       4       0       1
     459     411     412     458
 2     360       4       2       0
       4       0       1
     460     410     411     459
 2     361       4       2       0
       4       0       1
     461     409     410     460
 2     362       4       2       0
       4       0       1
     462     408     409     461
 2     363       4       2       0
       4       0       1
     462     437     406     408
 2     364       4       2       0
       4       0       1
     463     436     437     462
 2     365       4       2       0
       4       0       1
     464     435     436     463
 2     366       4       2       0
       4       0       1
     465     434     435     464
 2     367       4       2       0
       4       0       1
     466     433     434     465
 2     368       4       2       0
       4       0       1
     467     432     433     466
 2     369       4       2       0
       4       0       1
     468     431     432     467
 2     370       4       2       0
       4       0       1
     468     424     423     431
 2     371       4       2       0
       4       0       1
     469     425     424     468
 2     372       4       2       0
       4       0       1
     470     426     425     469
 2     373       4       2       0
       4       0       1
     471     427     426     470
 2     374       4       2       0
       4       0       1
     472     428     427     471
 2     375       4       2       0
       4       0       1
     473     429     428     472
 2     376       4       2       0
       4       0       1
     474     430     429     473
 2     377       4       2       0
       4       0       1
     474     416     415     430
 2     378       4       2       0
       4       0       1
     475     417     416     474
 2     379       4       2       0
       4       0       1
     476     418     417     475
 2     380       4       2       0
       4       0       1
     477     419     418     476
 2     381       4       2       0
       4       0       1
     478     420     419     477
 2     382       4       2       0
       4       0       1
     479     421     420     478
 2     383       4       2       0
       4       0       1
     480     422     421     479
 2     384       4       2       0
       4       0       1
     414     407     422     480
 2     385       2       2       0
       2       0       5
     246     244
 2     386       2       2       0
       2       0       5
     247     246
 2     387       2       2       0
       2       0       5
     248     247
 2     388       2       2       0
       2       0       5
     249     248
 2     389       2       2       0
       2       0       5
     250     249
 2     390       2       2       0
       2       0       5
     251     250
 2     391       2       2       0
       2       0       5
     252     251
 2     392       2       2       0
       2       0       5
     245     252
 2     393       2       2       0
       2       0       5
     255     254
 2     394       2       2       0
       2       0       5
     256     255
 2     395       2       2       0
       2       0       5
     257     256
 2     396       2       2       0
       2       0       5
     258     257
 2     397       2       2       0
       2       0       5
     259     258
 2     398       2       2       0
       2       0       5
     260     259
 2     399       2       2       0
       2       0       5
     244     260
 2     400       2       2       0
       2       0       5
     254     253
 2     401       2       2       0
       2       0       5
     262     261
 2     402       2       2       0
       2       0       5
     263     262
 2     403       2       2       0
       2       0       5
     264     263
 2     404       2       2       0
       2       0       5
     265     264
 2     405       2       2       0
       2       0       5
     266     265
 2     406       2       2       0
       2       0       5
     267     266
 2     407       2       2       0
       2       0       5
     268     267
 2     408       2       2       0
       2       0       5
     253     268
 2     409       2       2       0
       2       0       5
     269     245
 2     410       2       2       0
       2       0       5
     270     269
 2     411       2       2       0
       2       0       5
     271     270
 2     412       2       2       0
       2       0       5
     272     271
 2     413       2       2       0
       2       0       5
     273     272
 2     414       2       2       0
       2       0       5
     274     273
 2     415       2       2       0
       2       0       5
     275     274
 2     416       2       2       0
       2       0       5
     261     275
 2     417       2       2       0
       2       0       7
       3       1
 2     418       2       2       0
       2       0       7
       4       3
 2     419       2       2       0
       2       0       7
       5       4
 2     420       2       2       0
       2       0       7
       6       5
 2     421       2       2       0
       2       0       7
       7       6
 2     422       2       2       0
       2       0       7
       8       7
 2     423       2       2       0
       2       0       7
       9       8
 2     424       2       2       0
       2       0       7
       2       9
 2     425       2       2       0
       2       0       7
      11      10
 2     426       2       2       0
       2       0       7
      12      11
 2     427       2       2       0
       2       0       7
      13      12
 2     428       2       2       0
       2       0       7
      14      13
 2     429       2       2       0
       2       0       7
      15      14
 2     430       2       2       0
       2       0       7
      16      15
 2     431       2       2       0
       2       0       7
      17      16
 2     432       2       2       0
       2       0       7
       1      17
 2     433       2       2       0
       2       0       7
      25      18
 2     434       2       2       0
       2       0       7
      24      25
 2     435       2       2       0
       2       0       7
      23      24
 2     436       2       2       0
       2       0       7
      22      23
 2     437       2       2       0
       2       0       7
      21      22
 2     438       2       2       0
       2       0       7
      20      21
 2     439       2       2       0
       2       0       7
      19      20
 2     440       2       2       0
       2       0       7
      10      19
 2     441       2       2       0
       2       0       7
      31      32
 2     442       2       2       0
       2       0       7
      30      31
 2     443       2       2       0
       2       0       7
      29      30
 2     444       2       2       0
       2       0       7
      28      29
 2     445       2       2       0
       2       0       7
      27      28
 2     446       2       2       0
       2       0       7
      26      27
 2     447       2       2       0
       2       0       7
      18      26
 2     448       2       2       0
       2       0       7
      32       2
 2     449       2       2       0
       2       0       9
     332     333
 2     450       2       2       0
       2       0       9
     331     332
 2     451       2       2       0
       2       0       9
     330     331
 2     452       2       2       0
       2       0       9
     329     330
 2     453       2       2       0
       2       0       9
     328     329
 2     454       2       2       0
       2       0       9
     327     328
 2     455       2       2       0
       2       0       9
     325     327
 2     456       2       2       0
       2       0       9
     333     326
 2     457       2       2       0
       2       0       9
     335     334
 2     458       2       2       0
       2       0       9
     336     335
 2     459       2       2       0
       2       0       9
     337     336
 2     460       2       2       0
       2       0       9
     338     337
 2     461       2       2       0
       2       0       9
     339     338
 2     462       2       2       0
       2       0       9
     340     339
 2     463       2       2       0
       2       0       9
     341     340
 2     464       2       2       0
       2       0       9
     326     341
 2     465       2       2       0
       2       0       9
     343     342
 2     466       2       2       0
       2       0       9
     344     343
 2     467       2       2       0
       2       0       9
     345     344
 2     468       2       2       0
       2       0       9
     346     345
 2     469       2       2       0
       2       0       9
     347     346
 2     470       2       2       0
       2       0       9
     348     347
 2     471       2       2       0
       2       0       9
     349     348
 2     472       2       2       0
       2       0       9
     334     349
 2     473       2       2       0
       2       0       9
     356     325
 2     474       2       2       0
       2       0       9
     355     356
 2     475       2       2       0
       2       0       9
     354     355
 2     476       2       2       0
       2       0       9
     353     354
 2     477       2       2       0
       2       0       9
     352     353
 2     478       2       2       0
       2       0       9
     351     352
 2     479       2       2       0
       2       0       9
     350     351
 2     480       2       2       0
       2       0       9
     342     350
 2     481       2       2       0
       2       0      11
     413     414
 2     482       2       2       0
       2       0      11
     412     413
 2     483       2       2       0
       2       0      11
     411     412
 2     484       2       2       0
       2       0      11
     410     411
 2     485       2       2       0
       2       0      11
     409     410
 2     486       2       2       0
       2       0      11
     408     409
 2     487       2       2       0
       2       0      11
     406     408
 2     488       2       2       0
       2       0      11
     414     407
 2     489       2       2       0
       2       0      11
     416     415
 2     490       2       2       0
       2       0      11
     417     416
 2     491       2       2       0
       2       0      11
     418     417
 2     492       2       2       0
       2       0      11
     419     418
 2     493       2       2       0
       2       0      11
     420     419
 2     494       2       2       0
       2       0      11
     421     420
 2     495       2       2       0
       2       0      11
     422     421
 2     496       2       2       0
       2       0      11
     407     422
 2     497       2       2       0
       2       0      11
     424     423
 2     498       2       2       0
       2       0      11
     425     424
 2     499       2       2       0
       2       0      11
     426     425
 2     500       2       2       0
       2       0      11
     427     426
 2     501       2       2       0
       2       0      11
     428     427
 2     502       2       2       0
       2       0      11
     429     428
 2     503       2       2       0
       2       0      11
     430     429
 2     504       2       2       0
       2       0      11
     415     430
 2     505       2       2       0
       2       0      11
     437     406
 2     506       2       2       0
       2       0      11
     436     437
 2     507       2       2       0
       2       0      11
     435     436
 2     508       2       2       0
       2       0      11
     434     435
 2     509       2       2       0
       2       0      11
     433     434
 2     510       2       2       0
       2       0      11
     432     433
 2     511       2       2       0
       2       0      11
     431     432
 2     512       2       2       0
       2       0      11
     423     431
 2     513       2       2       0
       2       0      13
      89      90
 2     514       2       2       0
       2       0      13
      88      89
 2     515       2       2       0
       2       0      13
      87      88
 2     516       2       2       0
       2       0      13
      86      87
 2     517       2       2       0
       2       0      13
      85      86
 2     518       2       2       0
       2       0      13
      84      85
 2     519       2       2       0
       2       0      13
      82      84
 2     520       2       2       0
       2       0      13
      90      83
 2     521       2       2       0
       2       0      13
      92      91
 2     522       2       2       0
       2       0      13
      93      92
 2     523       2       2       0
       2       0      13
      94      93
 2     524       2       2       0
       2       0      13
      95      94
 2     525       2       2       0
       2       0      13
      96      95
 2     526       2       2       0
       2       0      13
      97      96
 2     527       2       2       0
       2       0      13
      98      97
 2     528       2       2       0
       2       0      13
      83      98
 2     529       2       2       0
       2       0      13
     100      99
 2     530       2       2       0
       2       0      13
     101     100
 2     531       2       2       0
       2       0      13
     102     101
 2     532       2       2       0
       2       0      13
     103     102
 2     533       2       2       0
       2       0      13
     104     103
 2     534       2       2       0
       2       0      13
     105     104
 2     535       2       2       0
       2       0      13
     106     105
 2     536       2       2       0
       2       0      13
      91     106
 2     537       2       2       0
       2       0      13
     113      82
 2     538       2       2       0
       2       0      13
     112     113
 2     539       2       2       0
       2       0      13
     111     112
 2     540       2       2       0
       2       0      13
     110     111
 2     541       2       2       0
       2       0      13
     109     110
 2     542       2       2       0
       2       0      13
     108     109
 2     543       2       2       0
       2       0      13
     107     108
 2     544       2       2       0
       2       0      13
      99     107
 2     545       2       2       0
       2       0      14
     171     164
 2     546       2       2       0
       2       0      14
     170     171
 2     547       2       2       0
       2       0      14
     169     170
 2     548       2       2       0
       2       0      14
     168     169
 2     549       2       2       0
       2       0      14
     167     168
 2     550       2       2       0
       2       0      14
     166     167
 2     551       2       2       0
       2       0      14
     165     166
 2     552       2       2       0
       2       0      14
     163     165
 2     553       2       2       0
       2       0      14
     178     179
 2     554       2       2       0
       2       0      14
     177     178
 2     555       2       2       0
       2       0      14
     176     177
 2     556       2       2       0
       2       0      14
     175     176
 2     557       2       2       0
       2       0      14
     174     175
 2     558       2       2       0
       2       0      14
     173     174
 2     559       2       2       0
       2       0      14
     164     173
 2     560       2       2       0
       2       0      14
     179     172
 2     561       2       2       0
       2       0      14
     187     180
 2     562       2       2       0
       2       0      14
     186     187
 2     563       2       2       0
       2       0      14
     185     186
 2     564       2       2       0
       2       0      14
     184     185
 2     565       2       2       0
       2       0      14
     183     184
 2     566       2       2       0
       2       0      14
     182     183
 2     567       2       2       0
       2       0      14
     181     182
 2     568       2       2       0
       2       0      14
     172     181
 2     569       2       2       0
       2       0      14
     194     163
 2     570       2       2       0
       2       0      14
     193     194
 2     571       2       2       0
       2       0      14
     192     193
 2     572       2       2       0
       2       0      14
     191     192
 2     573       2       2       0
       2       0      14
     190     191
 2     574       2       2       0
       2       0      14
     189     190
 2     575       2       2       0
       2       0      14
     188     189
 2     576       2       2       0
       2       0      14
     180     188
21       1     768      78
BOX         
       8       1       8       2       8       3       8       4       8       5
       8       6       8       7       8       8       8       9       8      10
       8      11       8      12       8      13       8      14       8      15
       8      16       8      17       8      18       8      19       8      20
       8      21       8      22       8      23       8      24       8      25
       8      26       8      27       8      28       8      29       8      30
       8      31       8      32       8      33       8      34       8      35
       8      36       8      37       8      38       8      39       8      40
       8      41       8      42       8      43       8      44       8      45
       8      46       8      47       8      48       8      49       8      50
       8      51       8      52       8      53       8      54       8      55
       8      56       8      57       8      58       8      59       8      60
       8      61       8      62       8      63       8      64       8      65
       8      66       8      67       8      68       8      69       8      70
       8      71       8      72       8      73       8      74       8      75
       8      76       8      77       8      78       8      79       8      80
       8      81       8      82       8      83       8      84       8      85
       8      86       8      87       8      88       8      89       8      90
       8      91       8      92       8      93       8      94       8      95
       8      96       8      97       8      98       8      99       8     100
       8     101       8     102       8     103       8     104       8     105
       8     106       8     107       8     108       8     109       8     110
       8     111       8     112       8     113       8     114       8     115
       8     116       8     117       8     118       8     119       8     120
       8     121       8     122       8     123       8     124       8     125
       8     126       8     127       8     128       8     129       8     130
       8     131       8     132       8     133       8     134       8     135
       8     136       8     137       8     138       8     139       8     140
       8     141       8     142       8     143       8     144       8     145
       8     146       8     147       8     148       8     149       8     150
       8     151       8     152       8     153       8     154       8     155
       8     156       8     157       8     158       8     159       8     160
       8     161       8     162       8     163       8     164       8     165
       8     166       8     167       8     168       8     169       8     170
       8     171       8     172       8     173       8     174       8     175
       8     176       8     177       8     178       8     179       8     180
       8     181       8     182       8     183       8     184       8     185
       8     186       8     187       8     188       8     189       8     190
       8     191       8     192       8     193       8     194       8     195
       8     196       8     197       8     198       8     199       8     200
       8     201       8     202       8     203       8     204       8     205
       8     206       8     207       8     208       8     209       8     210
       8     211       8     212       8     213       8     214       8     215
       8     216       8     217       8     218       8     219       8     220
       8     221       8     222       8     223       8     224       8     225
       8     226       8     227       8     228       8     229       8     230
       8     231       8     232       8     233       8     234       8     235
       8     236       8     237       8     238       8     239       8     240
       8     241       8     242       8     243       8     244       8     245
       8     246       8     247       8     248       8     249       8     250
       8     251       8     252       8     253       8     254       8     255
       8     256       8     257       8     258       8     259       8     260
       8     261       8     262       8     263       8     264       8     265
       8     266       8     267       8     268       8     269       8     270
       8     271       8     272       8     273       8     274       8     275
       8     276       8     277       8     278       8     279       8     280
       8     281       8     282       8     283       8     284       8     285
       8     286       8     287       8     288       8     289       8     290
       8     291       8     292       8     293       8     294       8     295
       8     296       8     297       8     298       8     299       8     300
       8     301       8     302       8     303       8     304       8     305
       8     306       8     307       8     308       8     309       8     310
       8     311       8     312       8     313       8     314       8     315
       8     316       8     317       8     318       8     319       8     320
       8     321       8     322       8     323       8     324       8     325
       8     326       8     327       8     328       8     329       8     330
       8     331       8     332       8     333       8     334       8     335
       8     336       8     337       8     338       8     339       8     340
       8     341       8     342       8     343       8     344       8     345
       8     346       8     347       8     348       8     349       8     350
       8     351       8     352       8     353       8     354       8     355
       8     356       8     357       8     358       8     359       8     360
       8     361       8     362       8     363       8     364       8     365
       8     366       8     367       8     368       8     369       8     370
       8     371       8     372       8     373       8     374       8     375
       8     376       8     377       8     378       8     379       8     380
       8     381       8     382       8     383       8     384
21       2      64       8
BOX_2_1     
       6     385       6     386       6     387       6     388       6     389
       6     390       6     391       6     392       6     393       6     394
       6     395       6     396       6     397       6     398       6     399
       6     400       6     401       6     402       6     403       6     404
       6     405       6     406       6     407       6     408       6     409
       6     410       6     411       6     412       6     413       6     414
       6     415       6     416
21       3      64       8
BOX_3_1     
       6     417       6     418       6     419       6     420       6     421
       6     422       6     423       6     424       6     425       6     426
       6     427       6     428       6     429       6     430       6     431
       6     432       6     433       6     434       6     435       6     436
       6     437       6     438       6     439       6     440       6     441
       6     442       6     443       6     444       6     445       6     446
       6     447       6     448
21       4      64       8
BOX_4_1     
       6     449       6     450       6     451       6     452       6     453
       6     454       6     455       6     456       6     457       6     458
       6     459       6     460       6     461       6     462       6     463
       6     464       6     465       6     466       6     467       6     468
       6     469       6     470       6     471       6     472       6     473
       6     474       6     475       6     476       6     477       6     478
       6     479       6     480
21       5      64       8
BOX_5_1     
       6     481       6     482       6     483       6     484       6     485
       6     486       6     487       6     488       6     489       6     490
       6     491       6     492       6     493       6     494       6     495
       6     496       6     497       6     498       6     499       6     500
       6     501       6     502       6     503       6     504       6     505
       6     506       6     507       6     508       6     509       6     510
       6     511       6     512
21       6      64       8
BOX_6_1     
       6     513       6     514       6     515       6     516       6     517
       6     518       6     519       6     520       6     521       6     522
       6     523       6     524       6     525       6     526       6     527
       6     528       6     529       6     530       6     531       6     532
       6     533       6     534       6     535       6     536       6     537
       6     538       6     539       6     540       6     541       6     542
       6     543       6     544
21       7      64       8
BOX_7_1     
       6     545       6     546       6     547       6     548       6     549
       6     550       6     551       6     552       6     553       6     554
       6     555       6     556       6     557       6     558       6     559
       6     560       6     561       6     562       6     563       6     564
       6     565       6     566       6     567       6     568       6     569
       6     570       6     571       6     572       6     573       6     574
       6     575       6     576
99       0       0       1
